<?xml version="1.0" standalone="no"?>
<!DOCTYPE svg PUBLIC "-//W3C//DTD SVG 20010904//EN"
 "http://www.w3.org/TR/2001/REC-SVG-20010904/DTD/svg10.dtd">
<svg version="1.0" xmlns="http://www.w3.org/2000/svg"
 width="626.000000pt" height="398.000000pt" viewBox="0 0 626.000000 398.000000"
 preserveAspectRatio="xMidYMid meet">

<g transform="translate(0.000000,398.000000) scale(0.100000,-0.100000)"
fill="#000000" stroke="none">
<path d="M2174 3799 c-239 -5 -253 -7 -288 -28 -20 -13 -35 -25 -33 -28 3 -2
85 3 183 12 187 16 466 19 512 5 20 -6 22 -9 8 -9 -20 -1 -20 -1 -1 -15 11 -8
23 -12 27 -9 5 2 12 -6 18 -19 l9 -23 6 22 c8 26 33 37 50 23 12 -10 88 -5
106 6 5 3 9 -2 9 -11 0 -9 -4 -13 -10 -10 -5 3 -10 1 -10 -5 0 -15 58 -9 64 7
3 7 13 13 21 13 9 0 13 -4 10 -10 -3 -5 -1 -10 4 -10 6 0 11 6 11 13 1 7 5 6
13 -5 9 -12 17 -14 30 -7 9 6 22 7 27 4 6 -3 10 0 10 7 0 9 3 9 10 -2 8 -13
10 -12 10 3 0 9 7 17 15 17 13 0 14 -4 5 -21 -11 -20 -11 -20 13 -4 20 13 26
13 31 3 5 -10 7 -10 12 -1 4 9 11 10 24 3 12 -6 21 -7 25 0 4 6 15 6 31 -1 22
-8 25 -7 20 6 -3 8 -1 15 4 15 6 0 10 -10 10 -22 0 -19 2 -20 10 -8 5 8 10 11
10 5 0 -5 5 -3 10 5 8 13 10 13 10 0 0 -10 3 -11 12 -2 7 7 17 8 30 1 14 -7
18 -6 18 5 0 16 15 16 46 -2 23 -12 35 -7 28 12 -4 9 4 11 28 7 19 -3 26 -6
16 -9 -10 -2 -18 -8 -18 -13 0 -14 37 -10 54 6 23 24 56 19 56 -7 0 -18 2 -20
9 -8 6 8 7 18 5 22 -3 4 9 8 25 8 22 0 31 -5 31 -16 0 -11 5 -14 16 -10 9 3
18 6 20 6 3 0 2 5 -1 10 -3 6 -2 10 4 10 5 0 15 -8 20 -17 6 -10 11 -13 11 -8
0 6 17 11 38 12 20 1 52 5 70 9 21 4 32 2 32 -5 0 -6 5 -11 11 -11 5 0 7 6 3
13 -5 7 0 6 11 -3 10 -8 16 -10 13 -4 -5 7 18 9 67 8 80 -2 94 -7 96 -32 1
-10 4 -7 8 7 4 14 13 27 20 29 8 3 11 0 8 -5 -4 -5 9 -10 28 -10 19 0 32 4 30
7 -3 4 52 8 121 9 101 1 128 -2 141 -14 14 -14 14 -18 -2 -35 -17 -19 -17 -20
4 -20 l22 0 -25 -26 c-15 -17 -30 -25 -40 -21 -9 4 -16 2 -16 -2 0 -5 6 -12
13 -14 6 -3 -4 -6 -23 -8 -25 -1 -28 -3 -12 -6 13 -3 19 -9 16 -15 -4 -6 -3
-9 2 -6 5 3 18 2 29 -2 19 -7 18 -8 -7 -18 -40 -16 -44 -32 -8 -32 21 0 30 -4
27 -12 -2 -7 -16 -13 -30 -13 -14 -1 -29 -4 -33 -8 -14 -14 -53 -7 -56 10 -2
14 -10 10 -37 -17 -20 -21 -27 -25 -18 -11 9 13 13 30 10 37 -3 8 0 14 7 14 6
0 8 5 5 10 -3 6 1 10 9 10 19 0 21 17 4 23 -7 2 -29 0 -47 -4 -39 -9 -55 -3
-47 17 3 7 1 16 -4 19 -6 4 -10 -3 -10 -14 0 -12 -5 -21 -10 -21 -6 0 -8 15
-4 40 6 38 5 40 -19 40 -14 0 -28 6 -30 13 -3 6 -6 -1 -6 -17 l-1 -29 -21 24
-22 24 5 -27 c3 -17 1 -28 -6 -28 -6 0 -4 -5 4 -10 12 -7 12 -10 1 -10 -8 0
-11 -6 -7 -15 3 -9 -1 -18 -9 -21 -8 -4 -13 -9 -10 -14 2 -4 -7 -5 -20 -2 -15
2 -25 11 -25 21 0 26 17 44 34 38 10 -4 16 -1 16 8 0 8 -7 15 -16 15 -9 0 -12
5 -8 11 4 7 1 10 -7 7 -8 -3 -13 -11 -12 -17 2 -6 -2 -11 -7 -11 -6 0 -10 14
-10 31 0 28 -1 29 -16 15 -17 -18 -34 -21 -34 -6 0 5 -7 7 -15 4 -8 -4 -15
-12 -15 -20 0 -8 -5 -14 -11 -14 -6 0 -9 9 -6 20 3 13 0 20 -9 20 -8 0 -14
-10 -14 -25 0 -22 -2 -24 -14 -13 -10 9 -11 15 -2 20 6 5 2 8 -11 8 -15 0 -23
-7 -26 -22 -4 -19 -5 -18 -6 6 l-1 28 -19 -23 c-11 -14 -23 -20 -28 -15 -4 5
-2 11 5 13 18 7 15 19 -6 19 -14 0 -18 -7 -15 -26 2 -14 0 -19 -3 -12 -12 25
-26 11 -22 -22 2 -19 0 -32 -4 -30 -4 3 -8 16 -8 30 0 15 -6 24 -15 24 -8 0
-15 6 -15 14 0 9 7 12 19 9 10 -3 22 1 27 8 5 9 2 11 -9 6 -10 -4 -27 -3 -40
2 -43 17 -43 17 -46 -39 -1 -20 -3 -22 -11 -10 -8 13 -10 12 -10 -3 0 -21 -24
-49 -34 -40 -3 4 -6 -8 -6 -26 0 -23 4 -30 13 -25 9 6 9 4 1 -7 -7 -8 -10 -30
-9 -49 2 -19 1 -27 -2 -17 -2 9 -9 15 -14 12 -13 -9 -11 9 3 23 10 10 8 14 -8
18 -11 3 -21 14 -21 26 -3 34 -19 43 -47 28 -20 -10 -28 -10 -40 -1 -12 10
-15 9 -18 -6 -3 -10 -8 8 -12 39 -5 31 -5 62 -1 69 5 8 4 10 -3 5 -7 -4 -12
-16 -12 -27 0 -22 -4 -23 -30 -9 -13 7 -19 6 -24 -6 -3 -8 -14 -14 -23 -12
-10 1 -25 -2 -33 -7 -20 -13 -60 -15 -60 -4 0 6 -8 6 -20 -1 -17 -9 -19 -8
-13 7 4 12 0 10 -14 -6 -23 -28 -47 -20 -37 11 4 14 2 18 -5 14 -6 -4 -11 -15
-12 -24 0 -14 -2 -13 -9 3 -5 11 -9 14 -9 6 -1 -11 -4 -11 -17 -1 -12 11 -15
11 -12 0 2 -8 -5 -16 -16 -18 -11 -2 -16 0 -12 7 4 6 2 11 -3 11 -6 0 -11 -7
-11 -15 0 -24 -20 -17 -21 8 -1 15 -3 17 -6 6 -2 -10 -13 -19 -25 -22 -16 -5
-19 -2 -15 14 3 10 1 19 -4 19 -5 0 -9 -7 -9 -15 0 -8 -7 -15 -16 -15 -8 0
-12 5 -9 10 3 6 2 10 -3 10 -6 0 -12 -6 -15 -14 -6 -15 -53 -16 -74 -3 -7 5
-13 5 -13 0 0 -4 -11 -8 -25 -8 -15 0 -25 6 -25 14 0 11 -4 10 -13 -4 -9 -11
-16 -14 -21 -7 -8 14 4 43 15 36 5 -3 9 1 9 10 0 17 -34 15 -36 -2 -1 -7 -2
-19 -3 -27 -1 -18 -31 -20 -31 -2 0 8 -3 7 -10 -3 -11 -18 -25 -6 -16 15 4 13
10 14 26 5 18 -10 20 -8 19 22 -1 24 -3 27 -6 11 -4 -21 -23 -33 -23 -15 0 22
-29 5 -34 -20 -3 -15 -10 -28 -16 -28 -7 0 -8 5 -3 13 13 21 12 37 -3 37 -8 0
-14 -8 -15 -17 -1 -12 -4 -10 -9 7 -7 22 -8 22 -10 5 -2 -15 -4 -12 -10 10
l-8 30 -1 -27 c-1 -33 -21 -48 -22 -16 0 22 -1 22 -9 3 -7 -17 -9 -17 -9 -2
-1 9 -6 17 -12 17 -6 0 -9 -7 -5 -15 3 -8 2 -15 -3 -15 -5 0 -8 -8 -7 -17 0
-10 -5 -17 -12 -15 -8 1 -11 -2 -7 -8 3 -6 10 -8 15 -5 4 3 10 -2 14 -10 3 -8
1 -17 -4 -20 -6 -4 -10 -1 -10 6 0 8 -4 8 -13 1 -7 -6 -18 -7 -26 -2 -8 4 -19
7 -25 6 -6 -2 -8 -1 -3 1 4 3 7 13 7 24 0 10 5 19 10 19 6 0 10 10 10 23 0 20
-4 22 -57 21 -55 0 -57 -1 -58 -27 -3 -43 -15 -44 -15 -1 -1 36 -2 38 -15 20
-15 -19 -15 -19 -16 5 -1 18 -3 19 -6 6 -3 -11 -11 -16 -19 -13 -9 3 -14 -1
-15 -12 0 -14 -2 -14 -9 3 -7 18 -8 19 -15 2 -13 -31 3 -67 30 -67 14 0 25 6
25 13 0 8 3 8 8 2 13 -18 47 -11 57 13 5 12 13 22 18 22 4 0 2 -10 -5 -22 -7
-13 -12 -27 -13 -32 0 -5 -44 -11 -97 -14 l-98 -4 0 51 c0 28 -4 51 -8 51 -5
0 -8 -27 -8 -59 1 -37 -2 -57 -9 -53 -24 15 -105 -8 -105 -30 0 -2 21 -2 46 1
55 4 81 -13 42 -28 -14 -5 -35 -7 -47 -4 -13 3 -34 -4 -56 -18 -36 -24 -44
-39 -23 -39 6 0 9 -3 5 -6 -3 -4 0 -12 7 -20 12 -11 171 -13 918 -13 1329 0
1436 -1 1410 -11 -12 -5 -206 -7 -452 -5 -237 3 -430 1 -430 -3 0 -4 -360 -7
-801 -8 -683 0 -802 -3 -810 -15 -7 -11 -9 -11 -9 4 0 25 -28 21 -33 -5 -3
-16 -5 -13 -6 12 -2 19 -5 29 -8 22 -2 -6 -9 -10 -14 -6 -5 3 -9 0 -9 -5 0 -6
-9 -11 -20 -11 -16 0 -20 -7 -21 -32 0 -18 -2 -42 -5 -53 -7 -35 -7 -99 1
-144 l7 -44 372 7 c484 8 1084 15 1906 21 366 3 684 8 707 11 l41 6 7 92 c9
119 6 140 -22 144 -14 2 -23 -2 -23 -10 -1 -9 -3 -8 -10 3 -8 14 -29 15 -154
12 -79 -3 -146 -1 -149 4 -3 4 26 7 64 5 75 -4 85 5 43 35 l-26 19 -1 175 c-1
95 1 183 3 194 4 17 -2 21 -40 26 -25 4 -456 8 -958 8 -503 0 -917 2 -920 4
-4 1 -120 0 -258 -4z m1016 -39 c0 -5 -2 -10 -4 -10 -3 0 -8 5 -11 10 -3 6 -1
10 4 10 6 0 11 -4 11 -10z m433 3 c-73 -2 -193 -2 -265 0 -73 1 -14 3 132 3
146 0 205 -2 133 -3z m225 0 c-10 -2 -26 -2 -35 0 -10 3 -2 5 17 5 19 0 27 -2
18 -5z m80 0 c-10 -2 -26 -2 -35 0 -10 3 -2 5 17 5 19 0 27 -2 18 -5z m65 0
c-7 -2 -21 -2 -30 0 -10 3 -4 5 12 5 17 0 24 -2 18 -5z m164 1 c-3 -3 -12 -4
-19 -1 -8 3 -5 6 6 6 11 1 17 -2 13 -5z m120 0 c-3 -3 -12 -4 -19 -1 -8 3 -5
6 6 6 11 1 17 -2 13 -5z m-1339 -11 c-64 -2 -172 -2 -240 0 -68 1 -15 3 117 3
132 0 187 -2 123 -3z m195 0 c-13 -2 -33 -2 -45 0 -13 2 -3 4 22 4 25 0 35 -2
23 -4z m397 -128 c0 -8 -4 -15 -10 -15 -5 0 -10 7 -10 15 0 8 5 15 10 15 6 0
10 -7 10 -15z m-1243 -57 c-3 -7 -5 -2 -5 12 0 14 2 19 5 13 2 -7 2 -19 0 -25z
m1353 11 c0 -6 -4 -7 -10 -4 -5 3 -10 1 -10 -4 0 -6 -4 -11 -8 -11 -5 0 -9 7
-9 15 0 8 4 12 9 9 4 -3 8 0 8 6 0 6 5 8 10 5 6 -3 10 -11 10 -16z m97 -6 c23
4 23 3 9 -11 -13 -13 -19 -14 -40 -3 -19 11 -22 16 -13 26 10 11 13 10 15 -2
3 -10 12 -13 29 -10z m-81 -11 c-17 -16 -18 -16 -5 5 7 12 15 20 18 17 3 -2
-3 -12 -13 -22z m131 13 c0 -8 -4 -12 -9 -9 -5 3 -6 10 -3 15 9 13 12 11 12
-6z m-564 -2 c-7 -2 -13 -12 -13 -20 0 -9 -3 -14 -6 -10 -10 10 4 37 18 36 10
0 10 -2 1 -6z m622 -21 c1 -11 -4 -23 -10 -26 -7 -2 -11 7 -11 25 0 33 19 34
21 1z m152 6 c-3 -8 -6 -5 -6 6 -1 11 2 17 5 13 3 -3 4 -12 1 -19z m-1566 -2
c5 3 9 -6 9 -19 0 -14 -7 -27 -15 -31 -12 -4 -15 3 -14 32 0 20 3 31 6 24 2
-6 9 -10 14 -6z m839 -7 c0 -5 -4 -9 -8 -9 -5 0 -9 7 -9 15 0 8 4 12 9 9 4 -3
8 -9 8 -15z m687 -11 c-3 -7 -5 -2 -5 12 0 14 2 19 5 13 2 -7 2 -19 0 -25z
m-1360 0 c-3 -8 -6 -5 -6 6 -1 11 2 17 5 13 3 -3 4 -12 1 -19z m500 0 c-3 -8
-6 -5 -6 6 -1 11 2 17 5 13 3 -3 4 -12 1 -19z m36 -3 c-7 -21 -13 -19 -13 6 0
11 4 18 10 14 5 -3 7 -12 3 -20z m344 3 c-3 -8 -6 -5 -6 6 -1 11 2 17 5 13 3
-3 4 -12 1 -19z m-1202 0 c3 -3 -3 -8 -15 -11 -13 -3 -20 0 -20 8 0 13 23 15
35 3z m224 9 c-2 -2 -12 -9 -21 -16 -15 -11 -18 -11 -18 1 0 7 10 14 21 15 12
1 20 1 18 0z m52 -22 c-4 -16 -6 -17 -9 -3 -2 11 -9 15 -19 11 -10 -4 -14 -2
-9 5 3 6 15 10 25 9 13 -1 17 -7 12 -22z m134 15 c-3 -5 -14 -10 -23 -10 -15
0 -15 2 -2 10 20 13 33 13 25 0z m1088 -31 c-8 -29 -13 -23 -13 14 0 22 3 28
9 18 5 -7 6 -22 4 -32z m-186 9 c-3 -8 -6 -5 -6 6 -1 11 2 17 5 13 3 -3 4 -12
1 -19z m30 0 c-3 -8 -6 -5 -6 6 -1 11 2 17 5 13 3 -3 4 -12 1 -19z m25 -10
c-7 -7 -10 -5 -7 8 5 29 6 30 12 16 3 -8 1 -18 -5 -24z m162 16 c3 -8 2 -12
-4 -9 -6 3 -10 10 -10 16 0 14 7 11 14 -7z m266 6 c0 -5 -2 -10 -4 -10 -3 0
-8 5 -11 10 -3 6 -1 10 4 10 6 0 11 -4 11 -10z m-533 -22 c-3 -8 -6 -5 -6 6
-1 11 2 17 5 13 3 -3 4 -12 1 -19z m156 15 c-7 -2 -19 -2 -25 0 -7 3 -2 5 12
5 14 0 19 -2 13 -5z m-956 -9 c-3 -3 -12 -4 -19 -1 -8 3 -5 6 6 6 11 1 17 -2
13 -5z m260 -16 c-3 -8 -6 -5 -6 6 -1 11 2 17 5 13 3 -3 4 -12 1 -19z m378 12
c3 -5 1 -10 -4 -10 -6 0 -11 5 -11 10 0 6 2 10 4 10 3 0 8 -4 11 -10z m115 -4
c0 -8 -4 -18 -10 -21 -5 -3 -10 3 -10 14 0 12 5 21 10 21 6 0 10 -6 10 -14z
m-1324 -7 c3 -5 -18 -9 -46 -9 -28 0 -59 -4 -69 -9 -13 -7 -17 -5 -18 8 -1 16
7 19 63 19 35 0 67 -4 70 -9z m224 1 c0 -5 -4 -10 -10 -10 -5 0 -10 5 -10 10
0 6 5 10 10 10 6 0 10 -4 10 -10z m910 6 c0 -3 -4 -8 -10 -11 -5 -3 -10 -1
-10 4 0 6 5 11 10 11 6 0 10 -2 10 -4z m627 -2 c-3 -3 -12 -4 -19 -1 -8 3 -5
6 6 6 11 1 17 -2 13 -5z m328 -44 c3 -5 -1 -10 -9 -10 -8 0 -18 5 -21 10 -3 6
1 10 9 10 8 0 18 -4 21 -10z m-2105 -10 c0 -5 -5 -10 -12 -10 -9 0 -9 -3 0
-12 8 -8 15 -8 29 3 16 13 17 12 4 -3 -7 -10 -25 -18 -40 -18 -18 0 -22 3 -13
9 8 4 13 11 13 15 -3 18 0 26 9 26 6 0 10 -4 10 -10z m1229 -3 c14 4 14 3 1
-6 -8 -6 -10 -11 -5 -11 6 -1 0 -5 -12 -10 -12 -5 -34 -5 -50 0 -15 4 -20 9
-10 9 9 1 17 5 17 11 0 5 7 6 17 3 12 -5 14 -3 8 8 -6 11 -5 11 5 2 7 -6 20
-9 29 -6z m135 -2 c-4 -8 -11 -15 -16 -15 -6 0 -5 6 2 15 7 8 14 15 16 15 2 0
1 -7 -2 -15z m-1138 -32 c-10 -10 -19 5 -10 18 6 11 8 11 12 0 2 -7 1 -15 -2
-18z m-348 5 c-3 -7 -15 -14 -29 -15 -13 -1 -18 0 -11 3 6 3 10 10 6 15 -3 5
4 9 16 9 13 0 20 -5 18 -12z m42 2 c0 -5 -4 -10 -9 -10 -6 0 -13 5 -16 10 -3
6 1 10 9 10 9 0 16 -4 16 -10z m1095 0 c-3 -5 -12 -10 -18 -10 -7 0 -6 4 3 10
19 12 23 12 15 0z m-952 -7 c-7 -2 -19 -2 -25 0 -7 3 -2 5 12 5 14 0 19 -2 13
-5z m44 1 c-3 -3 -12 -4 -19 -1 -8 3 -5 6 6 6 11 1 17 -2 13 -5z m80 0 c-3 -3
-12 -4 -19 -1 -8 3 -5 6 6 6 11 1 17 -2 13 -5z m1950 0 c-3 -3 -12 -4 -19 -1
-8 3 -5 6 6 6 11 1 17 -2 13 -5z"/>
<path d="M1831 3751 c-1 -9 -9 -11 -26 -7 -22 6 -25 4 -21 -16 11 -56 17 -60
37 -21 11 21 17 42 15 48 -2 5 -5 4 -5 -4z"/>
<path d="M2145 3749 c-77 -3 -160 -10 -185 -14 -25 -5 -48 -9 -52 -9 -3 -1
-10 -4 -14 -8 -4 -5 23 -8 59 -8 47 0 67 -4 67 -12 0 -9 4 -8 11 2 7 10 12 11
15 4 3 -7 14 -10 24 -7 11 3 17 9 14 14 -3 5 7 4 23 -2 15 -5 37 -8 50 -4 12
3 74 7 137 9 96 2 114 1 105 -11 -20 -23 5 -14 35 13 22 21 30 24 37 13 4 -7
11 -10 14 -7 18 18 -11 28 -71 24 -36 -2 -80 -1 -97 3 -18 3 -95 3 -172 0z"/>
<path d="M2496 3752 c-6 -10 5 -26 19 -29 6 -1 11 7 11 18 0 19 -20 26 -30 11z"/>
<path d="M2570 3699 c0 -5 5 -7 10 -4 6 3 10 8 10 11 0 2 -4 4 -10 4 -5 0 -10
-5 -10 -11z"/>
<path d="M2683 3650 c0 -36 2 -50 4 -32 2 17 2 47 0 65 -2 17 -4 3 -4 -33z"/>
<path d="M2485 3670 c-3 -5 -1 -18 4 -27 9 -16 10 -14 11 10 0 28 -5 34 -15
17z"/>
<path d="M2981 3665 c-1 -22 16 -45 34 -45 5 0 3 6 -6 13 -9 7 -19 21 -22 32
-5 19 -5 19 -6 0z"/>
<path d="M3460 3663 c0 -13 5 -23 10 -23 13 0 13 11 0 30 -8 12 -10 11 -10 -7z"/>
<path d="M2879 3642 c-3 -20 -2 -29 4 -23 5 5 7 19 5 32 -3 20 -5 19 -9 -9z"/>
<path d="M2925 3652 c3 -3 0 -11 -6 -19 -6 -7 -7 -13 -3 -13 5 0 14 8 21 18 9
15 8 19 -3 19 -8 0 -12 -3 -9 -5z"/>
<path d="M3227 3646 c-4 -10 -5 -21 -2 -24 9 -9 17 6 13 25 -3 17 -4 17 -11
-1z"/>
<path d="M2759 3642 c9 -7 10 -11 2 -15 -7 -4 -8 -5 -1 -3 16 2 14 20 -2 24
-10 3 -10 2 1 -6z"/>
<path d="M2833 3634 c-8 -21 -1 -25 20 -9 15 11 16 13 2 19 -9 3 -18 -1 -22
-10z"/>
<path d="M3100 3638 c0 -5 -11 -6 -25 -2 -20 5 -25 2 -25 -12 0 -16 2 -17 10
-4 5 8 10 10 10 3 0 -12 24 -12 36 0 4 4 12 3 18 -2 7 -6 16 -4 24 5 7 8 9 14
5 15 -4 0 -18 2 -30 3 -13 2 -23 -1 -23 -6z"/>
<path d="M3177 3643 c-4 -3 -7 -13 -7 -22 1 -13 3 -13 11 2 11 19 8 33 -4 20z"/>
<path d="M2342 3610 c-1 -16 2 -30 8 -30 5 0 10 14 10 30 0 17 -4 30 -8 30 -4
0 -9 -13 -10 -30z"/>
<path d="M2712 3620 c0 -14 2 -19 5 -12 2 6 2 18 0 25 -3 6 -5 1 -5 -13z"/>
<path d="M2792 3620 c0 -14 2 -19 5 -12 2 6 2 18 0 25 -3 6 -5 1 -5 -13z"/>
<path d="M3303 3626 c4 -10 1 -16 -8 -16 -9 0 -12 -8 -10 -21 6 -30 15 -37 15
-11 0 12 5 22 11 22 7 0 8 -11 4 -32 -6 -26 -5 -30 10 -25 9 4 19 7 21 7 3 0
0 10 -7 21 -6 12 -7 19 -1 15 14 -8 21 15 11 39 -7 19 -8 19 -8 -2 -1 -13 -5
-23 -10 -23 -5 0 -8 7 -7 16 0 9 -5 19 -13 22 -10 3 -12 0 -8 -12z"/>
<path d="M3369 3638 c-6 -24 -5 -59 2 -63 9 -6 14 10 9 30 -1 6 -3 16 -3 23 0
10 -6 17 -8 10z"/>
<path d="M4130 3620 c19 -13 30 -13 30 0 0 6 -10 10 -22 10 -19 0 -20 -2 -8
-10z"/>
<path d="M4190 3620 c-12 -8 -10 -10 8 -10 13 0 20 4 17 10 -7 12 -6 12 -25 0z"/>
<path d="M1857 3608 c-7 -4 12 -8 41 -8 28 0 52 2 52 4 0 8 -81 11 -93 4z"/>
<path d="M2074 3593 c-9 -14 -8 -21 3 -32 18 -17 21 -13 14 22 -5 25 -7 26
-17 10z"/>
<path d="M3451 3594 c0 -11 3 -14 6 -6 3 7 2 16 -1 19 -3 4 -6 -2 -5 -13z"/>
<path d="M1965 3590 l-30 -8 33 -1 c17 0 32 4 32 9 0 6 -1 9 -2 9 -2 -1 -16
-5 -33 -9z"/>
<path d="M2735 3590 c-3 -5 -1 -10 4 -10 6 0 11 5 11 10 0 6 -2 10 -4 10 -3 0
-8 -4 -11 -10z"/>
<path d="M4148 3593 c12 -2 30 -2 40 0 9 3 -1 5 -23 4 -22 0 -30 -2 -17 -4z"/>
<path d="M1900 3580 c0 -5 5 -10 10 -10 6 0 10 5 10 10 0 6 -4 10 -10 10 -5 0
-10 -4 -10 -10z"/>
<path d="M2320 3560 c0 -5 5 -10 10 -10 6 0 10 5 10 10 0 6 -4 10 -10 10 -5 0
-10 -4 -10 -10z"/>
<path d="M1965 3550 c-18 -8 -17 -9 8 -9 16 -1 26 3 22 9 -3 6 -7 10 -8 9 -1
0 -11 -4 -22 -9z"/>
<path d="M3400 3535 c0 -8 4 -15 10 -15 5 0 7 7 4 15 -4 8 -8 15 -10 15 -2 0
-4 -7 -4 -15z"/>
<path d="M3545 3041 c-3 -5 -28 -8 -55 -6 -30 2 -48 0 -45 -6 4 -5 1 -9 -4 -9
-6 0 -11 -8 -12 -17 0 -16 -1 -16 -8 1 -5 14 -10 16 -15 8 -4 -7 -4 -16 -1
-22 3 -5 4 -10 0 -10 -3 0 -10 11 -14 23 -7 19 -16 24 -43 23 -48 -2 -59 -12
-54 -50 6 -48 -9 -65 -23 -25 -6 17 -11 41 -11 51 0 11 -5 16 -10 13 -6 -3
-17 1 -26 9 -19 19 -38 20 -64 4 -15 -10 -22 -10 -31 -1 -9 9 -15 8 -26 -3 -8
-8 -19 -12 -24 -9 -5 4 -9 0 -9 -7 0 -18 -58 -17 -70 2 -8 12 -10 10 -10 -8 0
-20 -5 -23 -27 -20 -16 2 -27 8 -25 16 1 6 -2 12 -8 12 -5 0 -10 -7 -10 -15 0
-12 -10 -13 -47 -9 -27 3 -54 8 -61 10 -7 2 -11 0 -8 -5 9 -14 -20 -21 -33 -8
-8 8 -11 7 -11 -3 -1 -11 -3 -10 -11 3 -6 9 -15 14 -21 11 -6 -4 -8 -2 -4 4 3
6 2 13 -4 17 -5 3 -10 0 -10 -8 0 -17 -40 -11 -52 7 -5 7 -8 5 -8 -5 0 -19
-27 -21 -35 -2 -4 12 -8 12 -21 -1 -20 -20 -33 -20 -41 -1 -5 14 -8 14 -24 -1
-15 -13 -30 -15 -74 -10 -41 5 -55 3 -55 -6 -1 -8 -6 -6 -14 5 -8 10 -16 14
-17 8 -5 -13 -99 -22 -99 -10 0 5 -5 9 -11 9 -5 0 -8 -4 -4 -9 3 -6 -32 -9
-86 -8 -50 1 -93 -1 -95 -5 -3 -4 -16 -3 -31 3 -18 7 -30 6 -40 -3 -11 -9 -16
-9 -24 3 -7 10 -11 11 -17 2 -13 -20 -52 -11 -52 12 -1 18 -2 18 -14 -4 -13
-23 -18 -24 -112 -24 -54 1 -103 2 -109 3 -27 6 -56 -1 -49 -12 5 -8 2 -9 -9
-5 -9 3 -23 -1 -32 -9 -8 -8 -19 -12 -25 -9 -6 4 -10 -10 -10 -34 0 -23 3 -40
8 -40 4 1 9 0 12 -1 21 -9 714 -13 910 -6 52 2 138 0 190 -5 52 -5 338 -10
635 -11 487 -1 546 0 600 16 33 9 73 19 88 21 16 2 44 10 62 16 38 14 62 6
106 -35 24 -22 32 -23 234 -25 116 -1 219 -4 231 -7 19 -5 22 0 27 55 6 73 -4
128 -13 71 l-6 -35 -9 40 c-11 55 -34 88 -50 75 -8 -6 -30 -8 -54 -4 -34 5
-41 4 -41 -10 0 -22 -17 -20 -24 2 -4 10 -12 20 -19 21 -54 8 -485 5 -539 -4
-38 -6 -74 -7 -83 -3 -16 9 -104 4 -144 -8 -19 -6 -23 -4 -17 7 4 8 -2 3 -13
-11 l-21 -25 0 23 c0 15 -6 22 -20 22 -13 0 -20 -7 -20 -20 0 -12 -5 -17 -14
-14 -8 3 -12 13 -9 25 6 20 -2 26 -12 10z m63 -36 c-3 -3 -9 2 -12 12 -6 14
-5 15 5 6 7 -7 10 -15 7 -18z m35 -22 c3 7 6 5 6 -5 1 -13 -7 -18 -23 -18 -25
0 -40 12 -29 23 3 4 14 2 24 -3 12 -7 19 -6 22 3z m47 -8 c0 -8 -7 -15 -15
-15 -16 0 -20 12 -8 23 11 12 23 8 23 -8z m770 -16 c0 -27 -2 -30 -15 -19 -17
14 -21 35 -5 25 6 -3 10 1 10 9 0 9 2 16 5 16 3 0 5 -14 5 -31z m-1095 11 c-3
-5 -15 -10 -26 -10 -10 0 -19 5 -19 10 0 6 12 10 26 10 14 0 23 -4 19 -10z
m1000 0 c3 -5 -1 -10 -9 -10 -9 0 -16 5 -16 10 0 6 4 10 9 10 6 0 13 -4 16
-10z m-2660 -20 c3 -5 2 -10 -4 -10 -5 0 -13 5 -16 10 -3 6 -2 10 4 10 5 0 13
-4 16 -10z m1005 -40 c0 -5 -5 -10 -11 -10 -5 0 -7 5 -4 10 3 6 8 10 11 10 2
0 4 -4 4 -10z m590 -10 c0 -5 -5 -10 -11 -10 -5 0 -7 5 -4 10 3 6 8 10 11 10
2 0 4 -4 4 -10z m50 0 c0 -5 -4 -10 -10 -10 -5 0 -10 5 -10 10 0 6 5 10 10 10
6 0 10 -4 10 -10z m90 -2 c0 -4 -4 -8 -9 -8 -6 0 -12 4 -15 8 -3 5 1 9 9 9 8
0 15 -4 15 -9z m1197 -10 c-3 -8 -6 -5 -6 6 -1 11 2 17 5 13 3 -3 4 -12 1 -19z
m-1374 5 c-7 -2 -19 -2 -25 0 -7 3 -2 5 12 5 14 0 19 -2 13 -5z m117 -3 c0 -5
-5 -10 -11 -10 -5 0 -7 5 -4 10 3 6 8 10 11 10 2 0 4 -4 4 -10z"/>
<path d="M1523 2975 c0 -27 2 -38 4 -22 2 15 2 37 0 50 -2 12 -4 0 -4 -28z"/>
<path d="M3991 2860 c-74 -19 -59 -27 49 -24 123 3 116 1 95 24 -22 24 -55 24
-144 0z"/>
<path d="M2338 2823 c7 -3 16 -2 19 1 4 3 -2 6 -13 5 -11 0 -14 -3 -6 -6z"/>
<path d="M3193 2793 c15 -2 39 -2 55 0 15 2 2 4 -28 4 -30 0 -43 -2 -27 -4z"/>
<path d="M4438 2793 c12 -2 32 -2 45 0 12 2 2 4 -23 4 -25 0 -35 -2 -22 -4z"/>
<path d="M4709 2790 c-1 -6 -3 -14 -4 -20 -1 -5 -3 -14 -4 -20 0 -5 -10 -10
-21 -10 -24 0 -27 -17 -4 -22 12 -2 17 -15 18 -50 l1 -48 -40 -1 -40 -2 40 -6
c32 -5 41 -11 43 -28 2 -16 10 -23 24 -23 20 0 20 1 5 18 -22 24 -22 27 13 96
33 64 37 88 18 103 -21 16 -48 23 -49 13z"/>
<path d="M4528 2698 c5 -5 16 -8 23 -6 8 3 3 7 -10 11 -17 4 -21 3 -13 -5z"/>
<path d="M4150 2636 c0 -19 -4 -38 -10 -41 -5 -3 -10 -12 -10 -19 0 -14 47
-19 65 -7 6 3 18 6 27 6 10 0 18 5 18 10 0 6 -14 10 -30 10 -37 0 -37 3 -5 15
25 9 36 50 14 50 -5 0 -8 -4 -4 -9 3 -5 1 -12 -5 -16 -5 -3 -10 0 -11 7 0 7
-4 4 -9 -7 -8 -18 -9 -17 -9 8 -1 42 -31 36 -31 -7z"/>
<path d="M4473 2663 c-13 -3 -23 -8 -23 -13 0 -14 33 -21 41 -9 5 8 9 6 12 -7
4 -16 5 -17 6 -1 1 14 11 17 56 17 30 0 55 3 55 8 0 8 -109 11 -147 5z"/>
<path d="M2345 2650 c3 -5 8 -10 11 -10 2 0 4 5 4 10 0 6 -5 10 -11 10 -5 0
-7 -4 -4 -10z"/>
<path d="M2671 2644 c0 -11 3 -14 6 -6 3 7 2 16 -1 19 -3 4 -6 -2 -5 -13z"/>
<path d="M4250 2643 c0 -20 3 -21 30 -12 34 12 42 24 9 14 -14 -5 -25 -2 -30
6 -6 10 -9 8 -9 -8z"/>
<path d="M4326 2647 c6 -17 94 -17 94 -1 0 9 -16 13 -49 12 -33 0 -48 -4 -45
-11z"/>
<path d="M4546 2631 c-4 -6 -12 -9 -17 -6 -5 4 -9 -5 -9 -19 0 -16 6 -26 14
-26 19 0 32 20 14 21 -7 0 -6 3 4 7 11 5 14 12 9 21 -6 9 -11 10 -15 2z"/>
<path d="M4337 2619 c-9 -6 -17 -20 -17 -32 0 -18 2 -19 10 -7 8 12 10 12 10
1 0 -8 7 -11 20 -8 11 3 20 0 20 -6 0 -7 4 -6 9 2 8 12 12 12 24 2 13 -10 15
-9 12 6 -2 10 -4 22 -4 26 -1 5 -6 5 -12 1 -6 -3 -15 0 -20 7 -7 11 -9 10 -9
-3 0 -10 -6 -18 -14 -18 -22 0 -29 18 -9 22 10 2 13 6 8 10 -6 3 -18 2 -28 -3z"/>
<path d="M3629 2598 c-12 -23 -12 -23 10 -4 23 21 26 26 11 26 -5 0 -15 -10
-21 -22z"/>
<path d="M1536 2594 c-5 -14 -4 -15 9 -4 17 14 19 20 6 20 -5 0 -12 -7 -15
-16z"/>
<path d="M4462 2588 c3 -26 33 -36 41 -15 4 11 0 14 -16 10 -20 -4 -20 -3 3
11 l25 15 -28 1 c-24 0 -28 -4 -25 -22z"/>
<path d="M4261 2584 c0 -11 3 -14 6 -6 3 7 2 16 -1 19 -3 4 -6 -2 -5 -13z"/>
<path d="M4280 2580 c0 -5 4 -10 9 -10 6 0 13 5 16 10 3 6 -1 10 -9 10 -9 0
-16 -4 -16 -10z"/>
<path d="M3258 2573 c7 -3 16 -2 19 1 4 3 -2 6 -13 5 -11 0 -14 -3 -6 -6z"/>
<path d="M4616 2521 c-4 -6 -13 -8 -21 -4 -10 3 -15 -1 -15 -13 0 -14 2 -16 9
-6 4 8 11 13 15 12 13 -3 31 7 25 14 -4 4 -10 3 -13 -3z"/>
<path d="M4213 2505 c0 -8 4 -12 9 -9 5 3 6 10 3 15 -9 13 -12 11 -12 -6z"/>
<path d="M4246 2512 c-2 -4 -1 -14 4 -22 7 -11 9 -9 7 8 -1 24 -3 26 -11 14z"/>
<path d="M4505 2511 c-3 -5 -1 -12 5 -16 6 -4 8 -10 5 -15 -3 -5 -1 -11 4 -14
8 -5 8 15 1 34 -1 3 -2 8 -1 13 1 10 -7 9 -14 -2z"/>
<path d="M4547 2498 c-2 -7 2 -19 9 -26 12 -11 13 -9 11 7 -4 27 -13 35 -20
19z"/>
<path d="M4851 2494 c0 -11 3 -14 6 -6 3 7 2 16 -1 19 -3 4 -6 -2 -5 -13z"/>
<path d="M4296 2492 c-3 -5 1 -9 9 -9 8 0 12 4 9 9 -3 4 -7 8 -9 8 -2 0 -6 -4
-9 -8z"/>
<path d="M4414 2481 c-12 -26 -13 -41 -3 -35 5 3 7 10 4 15 -5 8 7 13 26 11 3
-1 6 5 6 12 0 18 -25 16 -33 -3z"/>
<path d="M1715 2480 c-3 -5 -1 -10 4 -10 6 0 11 5 11 10 0 6 -2 10 -4 10 -3 0
-8 -4 -11 -10z"/>
<path d="M3891 2464 c0 -11 3 -14 6 -6 3 7 2 16 -1 19 -3 4 -6 -2 -5 -13z"/>
<path d="M2058 2463 c7 -3 16 -2 19 1 4 3 -2 6 -13 5 -11 0 -14 -3 -6 -6z"/>
<path d="M3897 2444 c-10 -13 -15 -29 -12 -34 4 -6 1 -9 -7 -8 -8 2 -12 -5
-10 -18 2 -13 -3 -21 -12 -21 -10 0 -12 4 -7 11 5 7 1 19 -11 31 -15 15 -18
16 -13 3 4 -9 1 -19 -6 -24 -8 -5 -10 -3 -4 6 6 10 2 11 -16 7 -21 -5 -25 -3
-27 20 -1 15 -6 31 -12 37 -6 6 -8 0 -4 -17 3 -20 0 -27 -12 -27 -14 0 -14 -2
-3 -16 19 -23 22 -49 3 -33 -7 6 -12 15 -9 19 3 4 -2 13 -10 20 -8 7 -15 9
-15 5 0 -4 -6 -2 -14 4 -11 9 -15 8 -20 -4 -3 -9 -2 -14 2 -11 5 3 9 -1 9 -8
0 -7 -6 -13 -14 -13 -7 0 -13 5 -13 12 0 6 -15 10 -32 10 -18 0 -33 -6 -33
-12 0 -17 -15 -28 -16 -12 -1 8 0 19 1 24 1 6 -9 0 -22 -12 l-24 -22 -2 25
c-2 22 1 24 12 15 11 -10 16 -8 21 9 4 12 2 27 -3 32 -8 8 -9 4 -5 -11 3 -13
1 -21 -6 -21 -7 0 -9 5 -5 13 6 9 5 9 -8 0 -8 -7 -19 -9 -23 -5 -5 4 -5 1 -1
-6 6 -9 2 -12 -10 -10 -14 2 -19 -3 -19 -21 0 -13 -6 -26 -12 -28 -8 -3 -13 4
-13 17 0 15 -5 20 -14 17 -10 -4 -12 1 -9 16 3 13 1 18 -4 11 -4 -6 -18 -16
-31 -23 -12 -7 -20 -16 -17 -21 3 -5 1 -11 -5 -15 -9 -6 -14 11 -12 45 0 12
-3 11 -13 -3 -12 -17 -14 -17 -17 -2 -3 15 -6 14 -27 -4 -22 -19 -48 -20 -36
-1 3 5 1 11 -5 15 -5 3 -10 -3 -10 -15 0 -12 -4 -18 -10 -15 -5 3 -10 1 -10
-5 0 -18 -40 9 -41 28 0 11 -6 6 -14 -13 -13 -27 -21 -27 -15 0 1 6 -4 4 -11
-2 -16 -16 -46 -17 -55 -1 -5 7 -3 8 6 3 9 -5 11 -4 6 3 -10 16 -28 15 -24 0
3 -13 -3 -18 -23 -18 -6 0 -9 7 -5 15 7 19 -8 19 -24 0 -7 -9 -15 -13 -18 -10
-3 3 -12 -1 -20 -8 -13 -9 -14 -9 -8 1 8 13 -19 13 -40 -1 -7 -4 -17 -1 -23 7
-9 11 -6 13 19 11 16 -1 30 2 30 7 0 6 -6 8 -14 5 -7 -3 -18 -1 -23 4 -6 6
-14 4 -23 -6 -17 -21 -27 -19 -33 6 -3 12 -10 18 -17 14 -8 -5 -8 -11 1 -21 9
-11 8 -14 -2 -14 -12 0 -12 -2 0 -9 8 -5 21 -7 30 -4 12 3 12 2 -2 -7 -9 -6
-14 -16 -11 -22 4 -7 2 -8 -5 -4 -6 4 -9 12 -6 17 8 12 -2 11 -41 -3 -27 -9
-35 -9 -49 5 -15 15 -11 19 13 16 4 -1 6 -6 4 -12 -2 -6 5 -4 15 3 10 8 20 16
23 18 3 2 -4 2 -15 0 -13 -2 -19 2 -17 11 2 11 0 12 -11 2 -12 -9 -16 -8 -21
5 -5 13 -9 14 -21 4 -8 -7 -15 -22 -16 -34 0 -11 -3 -15 -6 -8 -4 10 -8 9 -19
-5 -12 -17 -14 -15 -20 15 -7 33 -19 35 -19 4 0 -9 -5 -16 -11 -15 -8 1 -10
-6 -6 -19 3 -14 1 -19 -6 -14 -7 4 -12 15 -12 24 0 15 -2 15 -10 2 -8 -12 -10
-12 -10 5 -1 18 -2 18 -11 -3 -10 -26 -33 -20 -24 7 3 12 0 18 -10 18 -8 0
-13 -3 -10 -5 11 -12 -18 -30 -41 -26 -18 3 -23 1 -18 -7 4 -8 3 -9 -5 -5 -6
4 -9 12 -6 17 3 5 -1 6 -9 3 -9 -3 -13 -10 -10 -15 3 -5 0 -8 -8 -7 -8 2 -13
-6 -12 -20 1 -16 -2 -20 -8 -14 -6 6 -17 8 -24 5 -10 -4 -14 4 -14 30 0 19 -7
40 -16 47 -12 11 -15 11 -12 0 2 -8 -6 -16 -17 -18 -11 -2 -26 -9 -32 -14 -15
-12 -6 -31 9 -22 7 4 8 2 4 -5 -6 -9 -11 -9 -23 0 -12 10 -16 10 -24 -2 -6
-10 -9 -7 -9 14 0 19 -5 27 -18 27 -27 0 -34 -11 -19 -28 9 -13 9 -14 0 -8 -8
4 -13 2 -13 -5 0 -8 -4 -8 -15 1 -8 7 -15 19 -15 28 0 17 -15 7 -15 -11 -1
-20 -49 -8 -69 16 -14 16 -18 17 -13 5 4 -10 2 -18 -3 -18 -6 0 -9 -3 -8 -7 2
-5 -1 -9 -6 -10 -5 -1 -14 -12 -20 -24 -6 -12 -18 -24 -26 -26 -11 -3 -11 -1
3 10 18 15 23 37 7 37 -5 0 -13 -7 -18 -16 -6 -11 -11 -13 -16 -5 -9 14 1 31
20 31 8 0 14 5 14 10 0 7 -6 7 -20 0 -17 -9 -20 -8 -21 12 0 13 -3 17 -6 10
-2 -6 -9 -10 -14 -6 -5 3 -14 2 -21 -2 -16 -10 -87 -9 -96 1 -4 5 0 6 9 2 12
-4 18 1 21 18 4 18 1 23 -13 22 -11 -1 -15 -5 -10 -10 6 -6 -1 -19 -17 -33
-25 -21 -25 -23 -5 -19 24 4 25 -13 3 -41 -8 -9 -14 -20 -12 -23 1 -3 -8 -5
-20 -5 -17 0 -23 5 -23 21 0 12 -8 31 -17 42 -16 18 -16 21 -2 29 15 8 15 10
0 15 -10 4 -15 3 -11 -3 6 -10 -9 -15 -30 -10 -5 1 -7 -2 -3 -6 4 -4 2 -14 -5
-22 -6 -9 -7 -13 -1 -9 6 3 11 0 11 -8 0 -8 -2 -13 -5 -10 -2 2 -17 -2 -33
-10 -18 -10 -30 -11 -34 -5 -3 6 6 15 22 21 16 7 23 13 15 16 -7 3 -19 0 -26
-6 -10 -9 -17 -7 -27 6 -8 9 -9 14 -3 10 7 -4 15 0 18 9 11 28 7 27 -38 -10
-24 -20 -51 -36 -59 -36 -7 0 -14 -7 -14 -15 0 -19 11 -19 27 0 7 9 15 13 18
11 2 -3 -10 -22 -28 -42 -29 -34 -32 -35 -30 -13 4 42 0 60 -10 54 -6 -4 -7
-12 -3 -18 4 -7 0 -6 -10 2 -24 19 -21 38 6 38 52 1 67 4 67 13 0 6 -9 6 -25
0 -22 -8 -25 -7 -25 11 0 17 -3 19 -13 10 -8 -6 -18 -7 -22 -3 -5 4 -5 1 0 -7
6 -10 2 -12 -13 -7 -11 4 -23 2 -27 -4 -4 -6 -1 -9 6 -8 6 2 14 -3 16 -9 4
-12 -17 -18 -41 -14 -5 1 -3 -6 5 -15 13 -16 12 -16 -8 -6 -14 8 -24 9 -28 2
-3 -5 -14 -14 -25 -20 -15 -8 -17 -7 -13 11 7 25 -15 69 -34 69 -8 0 -12 4 -8
9 3 5 1 12 -4 15 -5 4 -8 -14 -7 -40 1 -25 -2 -48 -8 -51 -5 -3 -7 -2 -4 3 3
5 2 18 -3 29 -7 19 -8 19 -8 -3 -1 -16 -5 -21 -13 -16 -8 5 -7 0 2 -11 8 -10
10 -16 4 -12 -11 6 -34 -52 -40 -100 -2 -22 1 -23 59 -25 75 -3 40 -2 1457
-11 630 -4 1361 -10 1626 -13 l480 -5 -4 68 c-2 37 -8 76 -13 85 -5 9 -9 46
-9 83 0 47 -3 64 -12 59 -7 -5 -8 -3 -2 7 12 20 14 38 4 44 -5 3 -7 -4 -5 -15
2 -11 0 -18 -6 -15 -5 4 -9 14 -9 23 0 13 -2 14 -9 4 -4 -8 -12 -14 -17 -15
-5 -1 -8 -5 -7 -8 1 -4 -8 -15 -20 -25 -12 -10 -19 -15 -15 -10 4 5 2 16 -5
24 -8 11 -8 14 0 9 6 -4 14 -3 17 2 4 5 2 12 -3 15 -5 4 -12 2 -16 -4 -3 -5
-11 -10 -16 -10 -6 0 -8 4 -5 8 3 5 -1 9 -9 9 -10 0 -12 -4 -5 -12 5 -7 6 -16
2 -20 -4 -5 0 -4 8 0 12 7 13 6 3 -7 -7 -8 -11 -17 -8 -20 3 -3 -1 -11 -10
-18 -9 -7 -15 -8 -15 -2 0 6 6 13 13 15 9 4 9 6 0 6 -7 1 -10 7 -7 15 4 10 -2
12 -23 9 l-28 -4 25 16 c21 13 22 15 5 13 -14 -2 -20 2 -19 15 1 10 -3 16 -10
14 -6 -2 -12 -26 -14 -53 -3 -49 -22 -89 -22 -46 0 15 -6 22 -20 22 -27 0 -25
27 3 33 15 4 13 5 -8 4 -17 -1 -35 2 -42 6 -13 8 -12 -18 2 -30 4 -4 5 -2 0 6
-5 10 -4 12 4 7 20 -13 1 -27 -20 -16 -11 6 -16 16 -13 22 5 7 2 8 -7 2 -8 -5
-22 -9 -32 -9 -22 0 -39 -25 -27 -40 6 -8 5 -12 -3 -12 -7 0 -13 13 -14 29 -1
28 4 31 48 31 9 0 16 6 16 13 0 9 -4 11 -12 4 -7 -6 -16 -5 -25 3 -10 9 -11 9
-6 0 4 -8 1 -13 -7 -13 -8 0 -18 7 -21 16 -6 16 -8 16 -24 0 -23 -20 -29 -20
-35 2 -3 10 -5 6 -6 -11 0 -16 3 -26 7 -23 5 3 8 -7 7 -22 0 -15 -4 -26 -8
-24 -4 1 -10 2 -13 2 -4 0 0 7 7 16 11 14 10 16 -11 12 -15 -2 -25 2 -26 10
-1 6 -3 22 -4 35 -2 17 -3 18 -7 5 -2 -10 -11 -18 -18 -18 -8 0 -16 -4 -20 -9
-3 -6 4 -8 15 -6 11 2 18 0 15 -5 -8 -13 -38 -5 -44 13 -6 16 -31 10 -34 -9
-1 -4 -10 -9 -19 -9 -12 -1 -18 5 -17 19 0 12 3 15 6 9 2 -7 9 -13 14 -13 4 0
6 7 2 16 -3 8 -11 13 -18 10 -7 -2 -16 -2 -19 2 -4 3 -22 6 -42 7 -39 1 -75
-27 -53 -41 7 -4 10 -3 5 4 -3 6 -2 13 3 16 5 4 8 -1 7 -11 -2 -9 -9 -18 -17
-19 -8 -2 -23 -5 -34 -7 -11 -3 -29 1 -40 9 -10 8 -14 14 -9 14 6 0 11 7 11
15 0 12 -3 12 -15 2 -13 -10 -15 -8 -9 13 5 22 4 23 -7 8 -11 -15 -13 -15 -24
0 -10 15 -11 14 -8 -8 2 -15 9 -24 17 -22 8 2 10 0 6 -4 -14 -14 -37 -13 -37
2 0 8 -4 14 -9 14 -6 0 -8 -9 -6 -20 2 -11 0 -18 -5 -15 -5 3 -7 14 -5 24 6
32 -9 40 -28 15z m267 -26 c3 -19 1 -25 -8 -22 -10 4 -13 23 -7 53 2 10 10 -7
15 -31z m662 -3 c1 -8 -3 -13 -9 -12 -7 1 -11 -4 -9 -10 1 -7 -2 -13 -8 -13
-15 0 -12 16 5 30 8 7 12 17 8 24 -3 6 -2 7 2 3 5 -4 10 -14 11 -22z m-918
-10 c-3 -3 -9 2 -12 12 -6 14 -5 15 5 6 7 -7 10 -15 7 -18z m-402 -31 c1 -9 0
-13 -4 -10 -3 4 -7 14 -8 22 -1 9 0 13 4 10 3 -4 7 -14 8 -22z m128 -5 c-3 -5
-10 -7 -15 -3 -5 3 -7 10 -3 15 3 5 10 7 15 3 5 -3 7 -10 3 -15z m921 12 c3
-5 2 -12 -3 -15 -5 -3 -9 1 -9 9 0 17 3 19 12 6z m65 -5 c0 -11 -19 -15 -25
-6 -3 5 1 10 9 10 9 0 16 -2 16 -4z m-2224 -30 c0 -15 -5 -22 -13 -19 -16 6
-16 16 -1 31 7 7 12 12 13 12 1 0 1 -11 1 -24z m670 -1 c-1 -8 -5 -17 -8 -21
-5 -4 -4 16 1 34 3 9 9 -1 7 -13z m-381 -4 c3 -5 1 -12 -5 -16 -5 -3 -10 1
-10 9 0 18 6 21 15 7z m1935 5 c0 -2 -7 -7 -16 -10 -8 -3 -12 -2 -9 4 6 10 25
14 25 6z m-2654 -17 c4 -8 -1 -9 -16 -4 -17 5 -21 4 -15 -5 5 -9 4 -11 -3 -6
-7 4 -12 2 -12 -4 0 -8 9 -10 26 -6 17 5 23 3 19 -4 -9 -14 -40 -13 -54 3 -8
10 -7 17 1 25 15 15 45 15 54 1z m40 -4 c-1 -8 -5 -17 -8 -21 -5 -4 -4 16 1
34 3 9 9 -1 7 -13z m2644 11 c0 -3 -4 -8 -10 -11 -5 -3 -10 -1 -10 4 0 6 5 11
10 11 6 0 10 -2 10 -4z m-2994 -40 c5 -30 1 -32 -21 -10 -12 13 -13 19 -4 30
14 18 18 14 25 -20z m3061 12 c-3 -8 -6 -5 -6 6 -1 11 2 17 5 13 3 -3 4 -12 1
-19z m-2317 -13 c0 -8 -2 -15 -4 -15 -2 0 -6 7 -10 15 -3 8 -1 15 4 15 6 0 10
-7 10 -15z m-662 -42 c0 -36 -11 -53 -33 -53 -5 1 -2 7 8 14 10 8 17 20 16 28
-2 19 0 48 5 48 2 0 4 -17 4 -37z m212 17 c14 8 18 5 18 -15 0 -16 -6 -25 -17
-25 -14 0 -14 2 -1 10 8 5 12 10 8 11 -5 1 -12 3 -18 4 -5 1 -14 3 -20 4 -5 0
-10 6 -10 13 0 9 3 9 12 0 7 -7 17 -8 28 -2z m-263 -37 c-3 -10 -5 -4 -5 12 0
17 2 24 5 18 2 -7 2 -21 0 -30z m-52 17 c-3 -5 -10 -10 -16 -10 -5 0 -9 5 -9
10 0 6 7 10 16 10 8 0 12 -4 9 -10z m425 2 c0 -5 -7 -9 -15 -9 -8 0 -15 4 -15
9 0 4 7 8 15 8 8 0 15 -4 15 -8z m2657 -14 c-3 -8 -6 -5 -6 6 -1 11 2 17 5 13
3 -3 4 -12 1 -19z m-2794 -13 c4 -8 3 -16 -1 -19 -4 -3 -9 4 -9 15 -2 23 3 25
10 4z m-295 -16 c9 -13 9 -16 -3 -16 -8 0 -15 9 -15 20 0 11 1 18 3 16 1 -2 8
-11 15 -20z m425 14 c-7 -2 -19 -2 -25 0 -7 3 -2 5 12 5 14 0 19 -2 13 -5z
m2584 -25 c-3 -8 -6 -5 -6 6 -1 11 2 17 5 13 3 -3 4 -12 1 -19z m-2693 -3 c-4
-8 -11 -15 -16 -15 -6 0 -5 6 2 15 7 8 14 15 16 15 2 0 1 -7 -2 -15z"/>
<path d="M4580 2449 c0 -5 5 -7 10 -4 6 3 10 8 10 11 0 2 -4 4 -10 4 -5 0 -10
-5 -10 -11z"/>
<path d="M1551 2434 c0 -11 3 -14 6 -6 3 7 2 16 -1 19 -3 4 -6 -2 -5 -13z"/>
<path d="M1695 2426 c-11 -11 -16 -18 -10 -13 5 4 17 7 27 7 10 0 18 4 18 9 0
19 -15 18 -35 -3z"/>
<path d="M4357 2421 c-4 -17 -3 -21 5 -13 5 5 8 16 6 23 -3 8 -7 3 -11 -10z"/>
<path d="M2015 2419 c-4 -6 -5 -12 -2 -15 2 -3 7 2 10 11 7 17 1 20 -8 4z"/>
<path d="M4036 2421 c-4 -5 -2 -12 3 -15 5 -4 12 -2 15 3 4 5 2 12 -3 15 -5 4
-12 2 -15 -3z"/>
<path d="M3013 2403 c-7 -3 -13 -8 -13 -13 0 -10 24 -7 28 4 5 11 -1 14 -15 9z"/>
<path d="M2062 2380 c0 -14 2 -19 5 -12 2 6 2 18 0 25 -3 6 -5 1 -5 -13z"/>
<path d="M2323 2395 c4 -5 0 -16 -9 -26 -9 -10 -11 -19 -5 -23 10 -7 24 10 27
31 1 7 -3 16 -9 20 -7 3 -9 2 -4 -2z"/>
<path d="M1693 2383 c4 -3 7 -12 7 -21 0 -14 2 -14 9 -3 7 11 9 11 14 0 4 -10
6 -9 6 4 1 9 -3 17 -8 17 -5 0 -15 2 -23 3 -7 2 -10 2 -5 0z"/>
<path d="M2036 2375 c-3 -8 -1 -15 4 -15 6 0 10 7 10 15 0 8 -2 15 -4 15 -2 0
-6 -7 -10 -15z"/>
<path d="M2511 2374 c0 -11 3 -14 6 -6 3 7 2 16 -1 19 -3 4 -6 -2 -5 -13z"/>
<path d="M1423 2359 c-9 -9 -10 -16 -2 -26 8 -9 8 -13 0 -13 -6 0 -11 -7 -11
-15 0 -19 19 -20 26 -1 3 8 4 26 2 41 -2 21 -6 24 -15 14z"/>
<path d="M2136 2357 c3 -10 9 -15 12 -12 3 3 0 11 -7 18 -10 9 -11 8 -5 -6z"/>
<path d="M2436 2358 c3 -4 11 -5 19 -1 21 7 19 12 -4 10 -11 0 -18 -5 -15 -9z"/>
<path d="M1830 2351 c0 -7 -6 -9 -12 -6 -7 4 -4 -1 6 -9 11 -9 15 -16 10 -16
-6 0 -10 -10 -10 -23 0 -15 6 -23 17 -23 10 0 16 3 14 6 -2 4 -7 22 -10 41 -6
34 -15 52 -15 30z"/>
<path d="M2420 2327 c0 -8 7 -14 15 -14 11 0 12 4 4 14 -6 7 -13 13 -15 13 -2
0 -4 -6 -4 -13z"/>
<path d="M1856 2321 c-4 -5 -2 -12 3 -15 5 -4 12 -2 15 3 4 5 2 12 -3 15 -5 4
-12 2 -15 -3z"/>
<path d="M4913 2061 c-16 -15 -33 -37 -38 -47 -7 -17 -8 -17 -15 6 -7 20 -8
15 -10 -25 -2 -47 -3 -48 -9 -15 -5 28 -8 31 -14 16 -4 -10 -13 -16 -22 -12
-8 3 -18 0 -22 -7 -5 -8 -10 -1 -14 18 -6 29 -7 29 -8 4 0 -16 -8 -30 -18 -34
-15 -5 -16 -4 -5 6 24 25 12 32 -14 8 -23 -21 -25 -21 -16 -3 7 13 7 25 1 35
-8 12 -10 12 -8 -1 3 -19 -11 -50 -22 -50 -4 0 -6 6 -3 14 3 8 1 16 -4 20 -5
3 -8 -8 -7 -24 1 -16 -2 -27 -7 -24 -4 3 -8 15 -8 27 0 20 0 20 -15 1 -8 -10
-15 -13 -15 -7 0 7 -10 12 -22 10 -15 -1 -22 3 -20 11 1 8 -2 11 -8 7 -6 -3
-8 -10 -5 -15 9 -15 -29 -17 -47 -3 -14 13 -16 10 -15 -26 1 -23 -1 -41 -5
-41 -5 0 -8 14 -8 30 0 27 -9 35 -34 31 -5 -1 -13 4 -17 11 -7 10 -9 10 -9 1
0 -7 -9 -13 -20 -13 -11 0 -20 -4 -20 -10 0 -5 -5 -10 -11 -10 -5 0 -8 4 -5 9
3 5 -10 11 -29 13 -26 3 -35 0 -36 -12 -3 -45 -9 -73 -15 -79 -4 -3 -4 15 -2
42 6 49 7 48 -39 47 -5 0 -8 -8 -8 -18 0 -9 -7 -17 -15 -17 -9 0 -14 7 -12 20
2 11 1 17 -3 13 -4 -4 -16 -3 -26 3 -17 9 -19 5 -21 -43 l-1 -53 -6 45 -6 45
-8 -42 c-10 -60 -25 -62 -17 -2 6 46 3 54 -22 50 -5 0 -8 6 -8 15 0 8 -5 12
-11 8 -6 -3 -9 -17 -6 -30 2 -14 0 -27 -5 -30 -4 -3 -6 -9 -3 -14 3 -5 0 -12
-5 -15 -8 -5 -10 6 -7 32 l4 40 -49 -1 c-26 -1 -48 2 -48 7 0 4 -5 5 -10 2 -6
-4 -9 -19 -7 -35 3 -15 1 -33 -4 -41 -4 -8 -4 -16 3 -20 7 -4 7 -9 -1 -13 -6
-4 -11 -2 -11 4 0 6 -4 9 -8 6 -5 -3 -8 14 -9 37 0 37 0 38 4 8 3 -24 7 -30
13 -21 4 7 4 24 -1 38 -5 13 -6 29 -2 35 4 7 -1 6 -10 -2 -13 -10 -17 -10 -17
-1 0 10 -3 10 -15 0 -11 -9 -13 -16 -5 -24 14 -14 12 -26 -5 -26 -8 0 -15 -6
-16 -12 0 -7 -6 0 -13 15 -19 42 -63 66 -54 29 6 -20 -17 -46 -32 -37 -14 8
-13 32 2 37 8 3 8 9 0 24 -7 11 -12 14 -12 5 0 -7 -6 -11 -15 -8 -17 7 -32
-12 -17 -22 11 -7 11 -61 0 -61 -5 0 -8 11 -8 25 0 14 -4 25 -10 25 -5 0 -9
-3 -9 -7 4 -26 -3 -63 -12 -63 -5 0 -8 4 -5 9 4 5 3 17 0 26 -6 14 -11 12 -38
-12 -26 -23 -27 -24 -9 -3 18 21 20 31 13 60 -8 33 -9 33 -7 5 2 -39 -12 -63
-24 -44 -7 11 -9 11 -9 1 0 -7 -3 -11 -7 -9 -5 3 -7 -16 -7 -41 1 -26 0 -41
-3 -34 -4 10 -8 10 -19 1 -18 -15 -18 -2 -1 16 8 8 12 27 9 50 -3 26 -7 33
-13 24 -5 -8 -9 -12 -10 -9 0 3 -2 13 -4 22 -2 11 3 16 16 15 10 -1 19 -5 19
-9 0 -4 5 -8 10 -8 6 0 10 9 10 20 0 11 -7 20 -15 20 -8 0 -15 6 -15 13 0 9
-2 9 -8 0 -4 -7 -31 -12 -64 -12 -69 0 -82 -5 -68 -31 11 -20 4 -50 -12 -50
-6 0 -8 7 -4 15 3 8 1 15 -5 15 -6 0 -7 5 -4 11 4 5 0 18 -9 28 -21 23 -70 17
-61 -8 12 -29 10 -36 -7 -35 -10 1 -18 -2 -18 -6 0 -5 8 -11 18 -13 12 -3 11
-5 -6 -6 -13 0 -21 -5 -17 -10 3 -5 0 -13 -6 -17 -8 -4 -9 -3 -5 4 4 7 3 12
-3 12 -5 0 -12 -12 -14 -27 -2 -17 -4 -10 -4 15 0 24 4 37 8 31 4 -8 12 -2 22
18 21 39 11 51 -45 54 -55 3 -55 3 -62 -35 -3 -16 -10 -34 -15 -39 -5 -5 -7
-15 -5 -22 3 -7 1 -15 -4 -19 -5 -3 -8 8 -7 24 1 17 -3 30 -8 30 -5 0 -7 -9
-4 -20 3 -11 1 -23 -4 -26 -5 -3 -10 -2 -10 3 -1 4 -3 21 -5 37 -5 46 -11 41
-12 -10 -1 -54 -12 -74 -12 -23 0 19 -5 41 -11 49 -9 13 -10 12 -5 -2 3 -10 1
-20 -4 -23 -11 -7 -14 48 -3 59 4 3 8 14 9 23 2 12 0 13 -9 4 -14 -14 -30 -14
-21 1 4 7 3 8 -4 4 -7 -4 -9 -23 -6 -50 6 -42 5 -43 -19 -43 -15 0 -25 2 -25
6 1 3 -1 22 -5 41 -5 27 -12 36 -27 36 -14 0 -18 -5 -14 -18 3 -9 0 -26 -6
-38 -8 -15 -8 -20 1 -20 7 0 9 -3 5 -7 -4 -5 -13 0 -20 9 -10 14 -13 7 -14
-44 -1 -74 -12 -92 -12 -20 0 54 -8 85 -20 77 -4 -2 -5 7 -2 20 5 27 22 35 22
10 0 -19 16 -20 23 -2 9 24 -6 32 -57 32 -45 0 -50 -2 -57 -27 -5 -20 -4 -25
7 -21 8 3 14 11 14 19 0 8 5 14 10 14 6 0 9 -18 8 -40 -3 -46 -6 -48 -17 -18
-6 18 -9 19 -14 5 -3 -9 1 -24 11 -34 16 -16 16 -16 -3 -9 -38 14 -40 11 -40
-46 0 -31 -3 -59 -7 -63 -4 -4 -6 39 -6 94 0 56 4 103 9 107 17 10 9 24 -15
24 -22 0 -23 -3 -19 -55 2 -30 0 -63 -6 -72 -10 -17 -11 -17 -12 2 -1 11 -5 4
-9 -15 l-7 -35 -2 38 c0 21 -5 36 -10 33 -5 -3 -5 12 1 37 5 23 13 44 19 45
17 7 9 22 -12 22 -13 0 -19 -5 -16 -13 3 -7 -1 -26 -8 -42 -7 -17 -14 -23 -15
-15 -1 9 -5 6 -11 -8 -5 -13 -6 -29 -2 -34 3 -7 1 -8 -5 -4 -18 11 -14 55 7
85 l19 27 -50 2 c-47 2 -49 1 -42 -20 11 -32 12 -88 3 -88 -5 0 -11 16 -15 35
-3 19 -10 38 -16 41 -5 3 -4 12 3 20 9 11 7 14 -12 14 -21 0 -24 -5 -24 -35 0
-19 3 -35 7 -35 4 0 5 -7 2 -15 -4 -8 -1 -22 6 -30 10 -12 10 -18 0 -30 -7 -8
-10 -29 -8 -45 3 -17 2 -33 -2 -35 -3 -2 -7 13 -8 33 -4 55 -10 68 -32 68 -11
0 -20 -7 -20 -16 0 -13 -2 -13 -10 0 -6 9 -5 20 3 29 9 12 9 13 0 7 -8 -4 -13
-2 -13 7 0 9 -10 15 -26 15 -15 -1 -21 -4 -14 -8 8 -5 7 -9 -4 -13 -9 -4 -16
-12 -16 -18 0 -8 5 -7 17 2 15 13 15 12 2 -8 -9 -15 -16 -19 -21 -10 -4 8 -10
3 -17 -13 -5 -14 -10 -18 -11 -10 0 13 -1 13 -10 0 -7 -11 -10 -7 -10 18 0 17
4 32 10 32 5 0 7 -8 4 -17 -5 -15 -4 -15 4 -3 6 8 10 17 9 20 0 3 5 14 11 26
6 11 7 26 3 33 -6 10 -12 7 -25 -10 -11 -16 -16 -19 -16 -8 0 8 6 21 12 28 11
11 10 12 -1 6 -9 -5 -12 -3 -9 5 7 21 24 23 42 5 15 -15 16 -15 16 4 0 18 -6
21 -42 21 l-43 0 -2 -42 c-3 -47 -10 -59 -23 -38 -5 9 -8 -4 -8 -36 0 -80 -2
-94 -9 -94 -9 0 -8 178 1 200 4 11 1 16 -12 16 -15 0 -17 -8 -15 -66 2 -51 1
-60 -7 -42 -5 13 -8 28 -5 33 4 5 -1 6 -9 3 -9 -3 -17 3 -21 18 -8 24 -34 58
-45 58 -3 0 -4 -27 -2 -61 4 -54 2 -62 -17 -76 -12 -8 -20 -21 -17 -28 2 -7
-2 -21 -9 -32 -13 -16 -14 -6 -9 77 3 52 7 100 9 105 1 6 -5 11 -15 12 -14 1
-16 -5 -12 -48 4 -39 2 -49 -11 -49 -10 0 -14 -8 -13 -24 2 -14 -1 -30 -5 -38
-7 -10 -9 -10 -10 2 0 8 -5 4 -9 -10 -7 -20 -8 -16 -10 25 -3 61 0 104 6 128
4 12 0 17 -15 17 -11 0 -23 -5 -26 -10 -3 -5 -2 -10 4 -10 5 0 8 -10 5 -22 -2
-13 -7 -41 -10 -63 -3 -22 -10 -44 -15 -49 -5 -6 -7 6 -4 27 3 20 0 39 -5 42
-5 3 -7 0 -4 -8 3 -8 -2 -17 -10 -20 -9 -4 -16 -12 -16 -19 0 -9 3 -9 10 2 5
8 12 11 16 7 4 -3 2 -13 -4 -20 -7 -8 -10 -16 -7 -19 3 -2 7 -22 9 -44 4 -30
3 -35 -5 -21 -6 9 -8 21 -5 25 2 4 1 14 -5 22 -6 11 -9 7 -9 -16 0 -20 -5 -31
-15 -31 -8 0 -11 5 -8 11 4 6 6 52 4 103 -2 78 0 93 13 93 8 0 20 -8 26 -17 9
-16 10 -15 8 7 -3 23 -7 25 -58 25 -47 0 -55 -3 -58 -20 -4 -20 -3 -20 11 -1
7 10 19 16 25 12 14 -8 4 -95 -13 -113 -7 -7 -11 -28 -9 -49 3 -34 2 -35 -11
-18 -13 18 -14 17 -15 -13 0 -18 -5 -33 -10 -33 -6 0 -10 6 -9 13 3 28 -1 110
-7 105 -3 -3 -5 -24 -6 -47 0 -43 -12 -57 -16 -18 -1 12 -6 36 -11 52 -7 24
-9 18 -7 -32 2 -35 -1 -63 -6 -63 -4 0 -8 5 -8 12 0 6 -6 4 -13 -6 -13 -18
-14 -18 -21 0 -4 11 -3 20 3 22 6 2 11 14 11 27 0 13 5 27 10 30 6 3 10 11 10
16 0 6 -4 8 -9 4 -6 -3 -9 22 -8 60 2 59 0 65 -18 64 -11 0 -14 -3 -7 -6 10
-4 10 -8 1 -19 -9 -11 -9 -14 0 -14 7 0 9 -5 6 -10 -4 -6 -11 -7 -17 -4 -6 4
-6 0 1 -13 6 -11 7 -23 4 -27 -4 -3 -20 19 -37 49 -25 42 -34 52 -46 45 -12
-8 -12 -10 -1 -10 10 0 12 -10 7 -42 -4 -23 -10 -47 -15 -53 -12 -16 -11 -56
1 -49 6 4 5 -3 -2 -16 -7 -12 -10 -34 -7 -49 4 -20 0 -30 -16 -41 -20 -12 -21
-11 -9 2 16 20 5 48 -16 41 -14 -4 -15 -3 -2 5 8 6 18 8 24 5 6 -4 6 1 1 13
-10 23 -12 117 -4 162 6 30 5 32 -20 32 -20 0 -23 -2 -11 -10 12 -7 12 -12 2
-22 -6 -6 -12 -17 -12 -22 0 -6 5 -4 10 4 6 9 10 10 10 3 0 -6 -4 -14 -9 -17
-5 -3 -9 -44 -9 -91 1 -47 -2 -88 -5 -92 -4 -3 -7 5 -7 19 0 26 -24 34 -47 15
-10 -7 -13 1 -14 34 -3 96 -6 129 -12 135 -3 3 -3 -41 -1 -99 4 -80 2 -106 -8
-109 -10 -4 -13 7 -11 41 0 25 -3 53 -7 61 -5 9 -8 -5 -6 -38 2 -52 -10 -97
-13 -48 -5 71 -3 67 -23 46 -10 -11 -25 -17 -33 -14 -17 7 -20 24 -5 24 6 0
10 -5 10 -12 0 -21 11 -1 16 28 4 26 3 27 -10 12 -17 -23 -23 -23 -29 0 -3 9
-5 1 -5 -18 1 -19 0 -41 -1 -47 -2 -19 -16 -15 -18 5 -1 9 -4 32 -7 51 -4 20
-1 40 7 49 8 11 8 13 0 9 -6 -4 -13 -1 -16 5 -2 7 -4 -9 -5 -37 0 -79 -1 -89
-20 -112 -17 -22 -17 -22 -16 30 2 97 3 109 16 101 7 -4 8 -3 4 5 -5 8 -13 7
-29 -4 -26 -18 -41 -19 -31 -2 5 7 1 6 -10 -3 -16 -13 -20 -12 -32 5 -13 17
-14 14 -15 -31 -1 -27 -3 -40 -6 -29 -3 11 -9 25 -15 30 -6 6 -7 4 -3 -6 4
-10 2 -20 -4 -24 -7 -3 -11 2 -11 14 0 12 -4 21 -8 21 -5 0 -8 -14 -7 -30 1
-22 -2 -29 -11 -26 -8 3 -11 0 -7 -9 3 -8 10 -12 17 -9 6 3 4 0 -5 -8 -12 -10
-14 -20 -6 -48 8 -31 10 -32 18 -15 5 13 8 15 9 5 0 -11 7 -8 22 10 13 15 19
18 15 8 -3 -10 -2 -20 3 -23 15 -10 12 -22 -8 -27 -10 -3 -18 -15 -19 -28 -2
-28 -8 -34 -23 -25 -9 6 -9 10 1 17 9 5 3 6 -16 2 -34 -8 -45 -14 -24 -14 8 0
25 -9 38 -19 19 -15 31 -16 70 -9 25 5 146 10 269 12 206 4 222 3 210 -12 -10
-14 -8 -13 8 1 23 19 94 21 94 2 0 -6 3 -6 8 1 9 14 85 13 94 -1 5 -6 8 -6 8
2 0 9 16 12 49 12 41 -1 48 -4 43 -18 -5 -14 -3 -14 10 -3 17 13 218 16 216 3
-2 -18 4 -22 17 -11 12 10 15 10 15 0 0 -10 3 -10 15 0 17 14 88 23 79 9 -3
-5 -10 -7 -15 -4 -16 11 -9 -7 9 -21 14 -11 15 -16 5 -33 -12 -19 0 -42 14
-27 4 3 0 6 -8 6 -11 1 -10 3 2 10 11 6 15 19 13 37 -2 16 -1 22 2 16 4 -9 11
-10 24 -3 15 8 21 6 29 -7 10 -17 11 -16 12 2 1 11 1 23 1 26 -1 3 5 6 13 6 8
0 12 -4 9 -9 -3 -4 0 -8 5 -8 6 0 10 -6 9 -12 -2 -7 3 -12 10 -10 6 1 12 -5
12 -14 0 -8 4 -13 9 -10 5 3 7 16 3 28 -3 14 -2 19 6 14 15 -9 16 -56 1 -56
-6 0 -9 -6 -6 -12 2 -7 9 -13 15 -13 7 0 11 -4 10 -10 -2 -5 -7 -9 -11 -7 -4
1 -7 -6 -5 -15 2 -13 -3 -18 -19 -17 -13 0 -23 -1 -23 -3 0 -2 10 -8 23 -13
17 -7 18 -9 5 -9 -18 -1 -19 -4 -22 -40 -2 -31 -13 -34 -12 -4 1 16 -8 39 -19
52 -17 21 -18 23 -2 18 11 -4 17 -1 17 8 0 8 8 12 20 10 12 -2 20 2 20 10 0
14 -16 15 -36 2 -6 -3 -14 -4 -17 -1 -8 8 4 44 15 44 5 0 6 -6 2 -12 -4 -7 -3
-9 1 -5 20 18 12 33 -19 32 -17 0 -32 -6 -32 -13 -1 -7 -2 -13 -3 -14 -2 -2
-4 -14 -7 -28 -3 -19 -2 -21 6 -10 11 17 11 16 14 -52 2 -28 -2 -48 -8 -48 -6
0 -5 -5 2 -12 16 -16 15 -31 0 -26 -7 3 -13 10 -13 16 0 7 -4 12 -10 12 -5 0
-10 -4 -10 -9 0 -18 -12 -21 -25 -6 -9 11 -17 12 -30 5 -16 -8 -18 -7 -15 10
2 11 -1 22 -6 25 -5 4 -6 11 -3 17 4 7 2 8 -4 4 -7 -4 -10 -23 -8 -45 5 -48
-6 -68 -24 -46 -7 8 -8 15 -3 15 5 0 10 7 10 15 0 18 -18 19 -36 2 -9 -8 -12
-8 -7 0 3 6 -1 13 -11 15 -15 3 -14 5 5 10 14 4 20 2 15 -4 -3 -7 -1 -8 6 -4
6 4 9 11 6 16 -3 5 -1 11 5 15 5 3 10 12 10 18 0 8 -3 8 -8 2 -8 -12 -22 -13
-38 -3 -6 4 -11 1 -11 -7 0 -8 5 -11 10 -8 6 3 7 1 3 -6 -6 -9 -11 -9 -22 0
-7 6 -12 15 -9 19 6 10 -21 7 -31 -3 -4 -4 -13 -2 -21 4 -8 7 -13 8 -13 1 0
-14 28 -23 36 -11 4 6 11 6 20 -2 13 -10 12 -15 -1 -35 -9 -13 -13 -25 -10
-25 3 -1 9 -2 14 -3 30 -4 12 -11 -31 -13 -47 -2 -49 -1 -30 12 20 15 21 62 0
49 -5 -3 -7 -12 -4 -20 3 -9 -2 -14 -14 -14 -11 0 -20 -5 -20 -11 0 -5 -4 -7
-10 -4 -5 3 -10 0 -10 -7 0 -9 -3 -9 -10 2 -5 8 -10 11 -10 6 0 -5 -8 -2 -18
7 -10 10 -22 14 -26 10 -4 -4 -19 -9 -34 -11 -15 -2 -31 -7 -36 -12 -6 -6 -1
-8 12 -5 12 2 25 -1 28 -7 4 -7 2 -8 -4 -4 -7 4 -12 1 -12 -8 0 -9 -4 -16 -10
-16 -5 0 -13 -1 -17 -2 -4 -2 -7 9 -8 23 0 14 -5 32 -11 40 -6 8 -11 28 -10
46 1 34 -11 32 -14 -2 -4 -39 0 -56 12 -49 7 5 8 3 4 -5 -5 -7 -11 -10 -14 -6
-3 3 -12 -5 -18 -17 -12 -22 -13 -22 -10 7 4 35 -1 48 -15 39 -6 -4 -6 -11 2
-20 6 -8 7 -14 2 -14 -5 0 -9 -19 -8 -42 0 -24 -2 -59 -6 -78 -6 -35 -6 -35
-8 9 -1 39 -3 42 -18 30 -14 -12 -15 -12 -9 0 5 8 3 17 -5 23 -11 7 -10 8 5 6
15 -2 20 4 23 30 4 33 4 34 -34 31 -40 -3 -78 -17 -70 -26 3 -3 12 -1 19 3 24
16 37 12 33 -8 -3 -12 -7 -23 -11 -27 -4 -3 -4 2 -1 12 4 11 3 16 -3 12 -6 -3
-10 -15 -10 -26 0 -11 4 -18 9 -15 5 3 15 -2 22 -12 13 -15 12 -16 -4 -3 -9 7
-17 10 -17 6 0 -4 -7 -2 -15 5 -8 7 -22 10 -30 6 -8 -3 -15 -1 -15 4 0 6 9 10
20 10 11 0 20 5 20 11 0 6 -9 8 -20 4 -27 -9 -27 19 0 38 11 8 17 17 13 20 -3
4 -12 -1 -19 -11 -11 -15 -12 -12 -10 23 2 24 7 39 14 37 7 -1 12 5 12 13 0 8
-4 15 -8 15 -18 0 -38 -37 -37 -68 1 -28 -2 -32 -19 -30 -13 2 -20 10 -20 20
1 10 -2 15 -7 12 -5 -3 -10 -13 -10 -22 -1 -9 -5 -3 -9 13 l-8 30 -2 -35 -3
-35 -7 35 c-7 32 -8 30 -10 -22 -1 -32 -3 -66 -4 -75 -1 -22 -20 -43 -37 -43
-7 0 -5 6 6 13 10 8 15 19 11 26 -6 9 -12 9 -24 -1 -15 -11 -15 -11 -5 3 7 9
10 18 7 21 -2 3 3 8 12 12 12 5 15 2 10 -11 -6 -14 -5 -15 5 -6 18 18 -8 48
-27 32 -9 -7 -14 -8 -14 -1 0 5 7 12 15 16 8 3 15 9 14 13 -1 4 0 10 1 13 9
25 23 106 16 99 -3 -3 -7 -15 -9 -26 -1 -12 -9 -28 -16 -37 -7 -8 -10 -20 -7
-25 4 -5 2 -12 -4 -16 -6 -4 -9 19 -6 64 2 39 0 71 -4 71 -3 0 -7 -24 -8 -52
-1 -29 -3 -62 -6 -73 -2 -11 -5 -22 -6 -25 0 -3 -7 6 -15 20 -14 25 -14 24
-15 -18 0 -26 -4 -41 -10 -37 -17 10 -32 -5 -20 -20 8 -9 8 -15 0 -20 -11 -7
-23 15 -18 36 2 7 11 22 20 33 22 24 23 36 4 36 -23 0 -26 27 -5 46 10 9 19
22 18 28 0 6 -3 6 -6 -1 -10 -26 -20 -12 -20 27 0 21 4 37 8 34 4 -2 10 0 13
5 3 5 -3 11 -14 14 -22 6 -23 3 -21 -62 1 -35 -4 -47 -22 -60 -26 -19 -52 -21
-52 -4 0 6 -3 15 -7 19 -4 3 -6 -3 -3 -15 2 -13 -1 -21 -9 -21 -8 0 -13 10
-12 22 0 13 -5 23 -11 24 -23 3 -24 4 -14 22 7 14 6 19 -4 19 -8 0 -12 -4 -10
-8 6 -9 -20 -61 -27 -54 -2 3 -5 -2 -5 -10 0 -8 4 -12 9 -9 4 3 8 -1 8 -9 0
-7 -7 -14 -15 -14 -8 0 -15 7 -15 16 0 13 -2 13 -9 3 -11 -19 -18 16 -16 95 0
59 -4 73 -13 35 -2 -9 -3 -37 -3 -62 0 -32 -2 -41 -9 -30 -7 11 -10 1 -10 -36
0 -27 6 -56 13 -63 9 -11 9 -13 0 -7 -8 5 -13 1 -13 -9 0 -10 5 -13 13 -9 9 6
9 4 -1 -8 -7 -9 -12 -20 -11 -24 1 -5 0 -36 -2 -69 l-3 -60 -6 75 c-3 41 -5
121 -3 178 2 62 -1 102 -7 102 -6 0 -11 -12 -12 -27 -3 -57 -7 -130 -8 -188
-1 -59 -1 -60 -15 -30 l-13 30 -1 -42 c-1 -52 -9 -73 -27 -73 -11 0 -14 -13
-13 -50 2 -34 6 -50 16 -50 7 0 13 -11 13 -25 0 -31 -3 -41 -12 -38 -14 5 -16
-26 -2 -31 9 -3 12 -10 9 -16 -3 -5 -1 -10 5 -10 6 0 8 -11 5 -27 l-5 -28 11
28 c10 26 12 27 24 11 8 -11 10 -27 5 -44 -8 -29 -12 -115 -4 -107 3 2 9 33
15 68 6 35 12 65 13 66 2 2 11 1 20 -3 9 -4 17 -19 17 -38 1 -23 3 -25 6 -8 4
22 27 30 38 12 3 -5 12 -7 20 -3 11 3 15 -2 15 -18 0 -19 2 -21 10 -9 8 12 10
12 10 -5 1 -20 1 -20 15 -1 13 17 15 18 15 3 0 -9 5 -17 10 -17 6 0 10 6 10
13 0 9 2 9 9 -1 4 -8 11 -13 15 -13 27 4 24 -3 -4 -9 l-35 -7 43 -2 c24 0 41
3 37 8 -3 5 0 13 6 17 8 5 10 -4 7 -30 -2 -20 0 -36 4 -36 4 0 8 9 8 20 0 24
35 48 81 55 l34 5 -30 -12 -30 -12 35 -6 c34 -5 35 -7 32 -43 -2 -25 1 -37 7
-32 14 8 15 -42 1 -58 -6 -7 -18 -22 -28 -33 -21 -27 -99 -40 -99 -17 0 10 11
13 36 12 54 -3 59 -1 57 18 -2 14 -13 18 -47 19 l-44 2 45 -8 c48 -7 46 -10
-10 -14 -31 -2 -36 0 -38 20 -1 13 -2 27 -3 31 -4 24 4 33 29 34 24 2 24 2 4
6 -30 6 -52 -13 -52 -45 0 -25 -1 -25 -15 -6 -11 14 -14 15 -15 4 0 -13 -1
-13 -10 0 -8 12 -10 9 -10 -13 0 -26 -2 -27 -50 -26 -41 2 -50 5 -50 21 0 10
5 18 11 18 5 0 7 -5 4 -10 -3 -6 -2 -10 4 -10 5 0 9 9 8 21 -1 15 -6 19 -22
15 -11 -3 -24 -6 -30 -6 -5 0 -3 -4 5 -10 12 -7 11 -10 -5 -16 -11 -4 -23 -12
-27 -18 -5 -7 -8 -4 -8 7 0 10 -4 15 -10 12 -5 -3 -10 -1 -10 4 0 6 -10 1 -22
-11 l-23 -23 -5 55 -6 55 -13 -47 c-7 -27 -17 -48 -22 -48 -5 0 -10 -19 -11
-42 -1 -38 -2 -36 -8 17 l-7 60 -1 -62 c-2 -61 -3 -63 -29 -64 -18 -1 -21 -3
-10 -6 9 -2 15 -9 12 -14 -4 -5 -1 -9 4 -9 6 0 11 -7 11 -15 0 -8 -4 -15 -10
-15 -5 0 -7 -6 -4 -14 3 -7 -2 -21 -12 -30 -14 -14 -15 -27 -9 -74 4 -31 7
-71 6 -89 -3 -58 22 -69 172 -77 163 -9 3736 -9 3795 0 51 8 68 29 78 94 3 25
16 67 27 93 18 44 19 55 8 140 -6 51 -16 117 -21 147 -4 30 -9 94 -9 142 -1
85 -13 118 -42 118 -6 0 -8 116 -7 302 l3 302 -45 11 -46 12 5 -31 c7 -52 8
-289 0 -316 -4 -14 -8 33 -10 105 -1 72 -3 135 -4 140 -2 6 -4 30 -5 55 -3 45
-3 45 -9 10 -3 -19 -11 -35 -18 -35 -6 0 -15 -4 -20 -9 -5 -5 -3 -6 5 -2 18
11 10 -29 -12 -53 -19 -21 -45 -19 -27 2 6 8 4 19 -6 32 -15 20 -15 20 -11 0
2 -11 -2 -19 -9 -18 -12 2 -12 -21 0 -33 13 -13 7 -33 -7 -28 -8 3 -17 20 -19
37 -2 18 -5 -8 -7 -58 -1 -49 -5 -80 -7 -67 -2 12 -8 22 -13 22 -4 0 -11 -10
-15 -22 -4 -15 -8 -18 -12 -10 -3 7 3 22 13 33 16 18 16 19 0 19 -9 0 -14 5
-11 10 4 6 10 8 15 5 5 -3 12 0 16 6 4 8 3 9 -4 5 -15 -9 -16 6 -2 20 6 6 3
10 -10 11 -22 2 -32 -10 -35 -41 -5 -47 -7 -50 -16 -21 -5 19 -5 31 1 33 12 4
14 23 3 21 -27 -4 -35 1 -23 16 10 12 9 15 -5 15 -14 0 -15 3 -5 15 14 17 6
50 -10 40 -6 -4 -8 -10 -5 -15 3 -5 2 -11 -3 -14 -4 -2 -9 6 -10 20 -1 13 4
24 11 24 8 0 8 3 -2 9 -22 14 -2 75 27 79 12 2 22 -2 22 -8 0 -8 6 -8 21 0 24
13 88 11 108 -4 11 -8 13 -8 7 2 -5 9 4 12 33 12 38 0 40 2 45 33 5 33 16 447
11 447 -1 0 -15 -13 -32 -29z m-2249 -111 c-6 -6 -10 -2 -11 12 -2 16 1 18 10
9 7 -7 8 -14 1 -21z m837 -25 c-8 -46 -9 -47 -10 -13 -1 34 8 73 15 66 2 -2
-1 -26 -5 -53z m-191 26 c0 -4 -7 -8 -15 -8 -16 0 -20 9 -9 20 8 8 24 -1 24
-12z m-303 -23 c-3 -7 -5 -2 -5 12 0 14 2 19 5 13 2 -7 2 -19 0 -25z m240 13
c0 -11 -6 -19 -11 -18 -5 1 -13 -11 -17 -28 l-7 -30 -1 32 c0 17 4 35 9 38 6
4 8 11 5 16 -4 5 1 9 9 9 8 0 14 -8 13 -19z m163 9 c0 -5 -2 -10 -4 -10 -3 0
-8 5 -11 10 -3 6 -1 10 4 10 6 0 11 -4 11 -10z m-1705 -88 c-6 -23 -5 -24 11
-11 11 9 15 9 10 2 -4 -7 -2 -13 3 -13 6 0 11 -5 11 -11 0 -8 -4 -8 -14 0 -9
7 -17 8 -20 2 -3 -5 -1 -11 6 -13 13 -5 2 -28 -13 -28 -6 0 -7 5 -4 10 3 6 2
10 -4 10 -6 0 -7 7 -4 17 5 12 3 14 -8 8 -11 -6 -12 -5 -1 6 15 16 16 33 0 23
-7 -5 -8 -3 -3 7 5 7 8 29 7 49 l-1 35 15 -34 c9 -20 13 -45 9 -59z m2315 78
c0 -5 -4 -10 -10 -10 -5 0 -10 5 -10 10 0 6 5 10 10 10 6 0 10 -4 10 -10z
m247 -37 c-3 -10 -5 -2 -5 17 0 19 2 27 5 18 2 -10 2 -26 0 -35z m194 -5 c2
-26 0 -50 -4 -54 -4 -4 -7 19 -7 51 0 69 7 70 11 3z m169 32 c-8 -5 -17 -7
-19 -4 -3 3 1 9 9 14 8 5 17 7 19 4 3 -3 -1 -9 -9 -14z m-1220 -16 c0 -8 -4
-12 -10 -9 -5 3 -10 10 -10 16 0 5 5 9 10 9 6 0 10 -7 10 -16z m984 1 c3 -8 1
-15 -4 -15 -6 0 -10 7 -10 15 0 8 2 15 4 15 2 0 6 -7 10 -15z m-2163 -48 c-18
-18 -13 -31 7 -16 15 13 16 12 4 -3 -8 -9 -10 -23 -6 -29 5 -8 3 -9 -6 -4 -10
6 -12 4 -7 -8 3 -9 -1 -21 -11 -29 -13 -11 -14 -11 -7 2 5 8 8 44 7 80 -3 63
-3 64 14 42 12 -18 13 -27 5 -35z m1019 12 c0 -16 -4 -28 -9 -25 -8 5 -3 56 5
56 2 0 4 -14 4 -31z m423 14 c-7 -17 -43 -57 -43 -47 0 8 40 64 45 64 3 0 1
-8 -2 -17z m127 7 c0 -5 -2 -10 -4 -10 -3 0 -8 5 -11 10 -3 6 -1 10 4 10 6 0
11 -4 11 -10z m37 -12 c-3 -8 -6 -5 -6 6 -1 11 2 17 5 13 3 -3 4 -12 1 -19z
m209 -14 c3 -16 2 -26 -1 -23 -3 4 -8 19 -11 35 -3 16 -2 26 1 23 3 -4 8 -19
11 -35z m801 -21 c-3 -10 -5 -2 -5 17 0 19 2 27 5 18 2 -10 2 -26 0 -35z
m-2507 12 c0 -14 -4 -25 -10 -25 -5 0 -10 11 -10 25 0 14 5 25 10 25 6 0 10
-11 10 -25z m770 21 c0 -3 -4 -8 -10 -11 -5 -3 -10 -1 -10 4 0 6 5 11 10 11 6
0 10 -2 10 -4z m240 0 c0 -2 -7 -9 -15 -16 -13 -11 -14 -10 -9 4 5 14 24 23
24 12z m-1233 -43 c-3 -10 -5 -4 -5 12 0 17 2 24 5 18 2 -7 2 -21 0 -30z m907
23 c12 16 13 15 18 -4 4 -13 0 -26 -10 -34 -13 -11 -14 -11 -7 1 6 10 4 13 -6
9 -11 -4 -15 2 -16 21 0 15 1 19 4 8 4 -17 6 -17 17 -1z m43 -8 c-3 -8 -6 -5
-6 6 -1 11 2 17 5 13 3 -3 4 -12 1 -19z m-594 -8 c3 -11 2 -22 -2 -24 -4 -3
-8 6 -9 20 -2 29 4 31 11 4z m1734 -2 c-3 -8 -6 -5 -6 6 -1 11 2 17 5 13 3 -3
4 -12 1 -19z m-2938 -31 c0 -25 -2 -28 -8 -13 -7 19 -8 19 -15 0 -8 -17 -9
-16 -17 10 -9 34 -3 48 11 26 8 -13 10 -12 10 3 0 10 5 15 10 12 6 -3 10 -21
9 -38z m1841 29 c0 -3 -4 -8 -10 -11 -5 -3 -10 -1 -10 4 0 6 5 11 10 11 6 0
10 -2 10 -4z m563 -26 c3 -11 1 -18 -4 -14 -5 3 -9 12 -9 20 0 20 7 17 13 -6z
m254 -2 c-3 -8 -6 -5 -6 6 -1 11 2 17 5 13 3 -3 4 -12 1 -19z m440 -10 c-3 -7
-5 -2 -5 12 0 14 2 19 5 13 2 -7 2 -19 0 -25z m-1920 -10 c-3 -7 -5 -2 -5 12
0 14 2 19 5 13 2 -7 2 -19 0 -25z m50 -5 c-3 -10 -5 -4 -5 12 0 17 2 24 5 18
2 -7 2 -21 0 -30z m226 16 c-6 -6 -9 -19 -6 -28 7 -17 5 -16 -17 13 -8 11 -10
17 -3 13 6 -4 14 -3 18 3 3 5 9 10 13 10 3 0 1 -5 -5 -11z m387 7 c0 -3 -4 -8
-10 -11 -5 -3 -10 -1 -10 4 0 6 5 11 10 11 6 0 10 -2 10 -4z m526 -11 c-4 -24
-16 -30 -16 -7 0 12 4 22 9 22 5 0 8 -7 7 -15z m-2459 -10 c0 -8 -4 -12 -9 -9
-5 3 -6 10 -3 15 9 13 12 11 12 -6z m850 -15 c1 -17 -2 -30 -7 -30 -6 0 -10
14 -10 30 0 39 14 39 17 0z m604 3 c-12 -20 -14 -14 -5 12 4 9 9 14 11 11 3
-2 0 -13 -6 -23z m-1200 -20 c-4 -28 -6 -32 -9 -15 -3 22 3 52 11 52 1 0 1
-17 -2 -37z m253 4 c2 -14 0 -31 -4 -37 -4 -6 -7 8 -8 31 -2 45 8 49 12 6z
m53 -19 c-2 -13 -4 -5 -4 17 -1 22 1 32 4 23 2 -10 2 -28 0 -40z m333 37 c0
-1 -7 -8 -15 -15 -13 -11 -14 -10 -9 5 6 14 4 16 -6 10 -8 -5 -11 -4 -6 3 5 9
36 7 36 -3z m1036 -13 c-17 -16 -18 -16 -5 5 7 12 15 20 18 17 3 -2 -3 -12
-13 -22z m834 24 c0 -3 -4 -8 -10 -11 -5 -3 -10 -1 -10 4 0 6 5 11 10 11 6 0
10 -2 10 -4z m-2384 -17 c3 -6 1 -16 -6 -22 -10 -9 -12 -8 -7 5 3 9 1 19 -6
22 -9 3 -9 5 0 5 6 1 15 -4 19 -10z m371 -11 c-3 -8 -6 -5 -6 6 -1 11 2 17 5
13 3 -3 4 -12 1 -19z m190 0 c-3 -8 -6 -5 -6 6 -1 11 2 17 5 13 3 -3 4 -12 1
-19z m2170 0 c-3 -8 -6 -5 -6 6 -1 11 2 17 5 13 3 -3 4 -12 1 -19z m-2452 -8
c-2 -27 -15 -38 -15 -13 0 16 8 33 15 33 1 0 1 -9 0 -20z m-425 6 c0 -2 -8
-10 -17 -17 -16 -13 -17 -12 -4 4 13 16 21 21 21 13z m117 -23 c1 -19 -1 -22
-8 -12 -11 17 -12 39 -1 39 4 0 8 -12 9 -27z m93 23 c0 -3 -4 -8 -10 -11 -5
-3 -10 -1 -10 4 0 6 5 11 10 11 6 0 10 -2 10 -4z m474 -42 c3 -8 2 -12 -4 -9
-6 3 -10 10 -10 16 0 14 7 11 14 -7z m-624 -28 c0 -2 -8 -10 -17 -17 -16 -13
-17 -12 -4 4 13 16 21 21 21 13z m17 -29 c-6 -15 -18 -27 -25 -27 -14 0 -9 13
17 40 21 22 23 19 8 -13z m29 -25 c-11 -10 -15 4 -8 28 l7 25 3 -23 c2 -13 1
-26 -2 -30z m901 -28 c-3 -3 -12 -4 -19 -1 -8 3 -5 6 6 6 11 1 17 -2 13 -5z
m211 -1 c-12 -3 -18 -14 -17 -31 0 -24 1 -25 9 -7 8 19 9 19 9 -2 1 -13 -3
-23 -9 -23 -5 0 -10 -7 -10 -16 0 -8 4 -13 9 -9 5 3 13 0 17 -6 4 -7 3 -9 -4
-5 -6 3 -13 3 -16 -2 -2 -4 6 -9 19 -10 21 -1 23 2 20 28 -2 17 -7 36 -11 42
-4 7 -3 8 4 4 8 -4 12 0 12 11 0 15 2 15 9 4 6 -9 6 -22 1 -32 -10 -17 -3 -32
11 -23 4 2 6 12 3 22 -5 15 -4 14 10 -2 14 -18 15 -18 13 2 0 11 -5 18 -10 15
-4 -3 -11 4 -14 15 -3 12 -12 23 -22 25 -9 3 49 5 128 6 79 0 142 -2 139 -5
-3 -3 -47 -5 -97 -5 -90 0 -102 -4 -79 -27 13 -13 20 -82 8 -82 -4 0 -6 16 -5
36 1 19 -2 37 -5 39 -4 3 -7 -12 -7 -33 0 -20 -4 -36 -10 -35 -5 1 -10 -4 -10
-12 0 -8 3 -14 6 -13 18 2 22 -4 11 -17 -7 -8 -16 -12 -21 -10 -4 3 -7 -7 -6
-22 1 -16 -3 -28 -10 -29 -26 -3 -28 -5 -13 -14 8 -5 10 -10 4 -10 -19 0 -37
27 -24 35 8 5 8 11 0 20 -17 21 -2 39 18 23 14 -10 14 -9 -1 8 -15 18 -15 23
-4 32 8 7 16 10 19 7 2 -3 5 2 5 10 0 10 -4 12 -12 5 -7 -5 -16 -6 -20 -2 -5
4 -5 1 -1 -6 6 -9 0 -15 -15 -19 -22 -6 -22 -7 -3 -14 17 -7 17 -8 -4 -8 -21
-1 -23 -5 -21 -35 2 -19 1 -37 -2 -40 -3 -3 -6 11 -7 31 -4 59 -12 52 -14 -13
l-1 -59 -7 50 c-4 28 -8 40 -8 27 -1 -13 -6 -20 -12 -17 -5 3 -10 -3 -10 -14
0 -28 -20 -37 -27 -13 -3 13 -11 19 -23 17 -14 -3 -17 1 -13 13 5 11 8 12 11
3 3 -8 8 -7 19 6 8 10 12 12 8 6 -11 -22 4 -14 15 8 10 18 10 19 -8 10 -26
-14 -36 -2 -17 19 18 20 28 60 14 60 -5 0 -9 5 -9 11 0 5 6 7 13 3 10 -6 10
-4 0 7 -7 7 -13 20 -13 29 0 12 2 12 9 1 5 -8 11 -9 15 -3 3 6 2 13 -4 17 -23
14 -7 25 38 24 26 -1 39 -3 30 -6z m363 0 c-11 -4 -11 -7 0 -13 10 -7 10 -12
1 -23 -10 -11 -9 -17 2 -26 16 -14 32 2 20 21 -4 7 -3 8 4 4 7 -4 12 -1 12 9
0 9 5 13 10 10 6 -4 8 -10 5 -15 -3 -5 -1 -11 4 -15 5 -3 8 -14 6 -25 -2 -12
0 -18 6 -15 5 4 13 -4 18 -17 7 -16 10 -18 10 -6 1 11 8 16 19 13 10 -2 19 2
19 9 0 7 -10 13 -21 12 -13 -1 -20 4 -18 12 1 8 -2 11 -8 7 -13 -8 -13 1 0 25
8 15 16 17 39 10 16 -4 33 -5 37 -2 5 4 3 0 -4 -9 -9 -12 -9 -16 1 -16 7 0 14
10 15 22 1 21 -3 22 -75 24 -135 4 -92 11 63 11 l149 0 -4 -57 c-3 -32 -7 -48
-9 -35 -2 12 -8 22 -14 22 -5 0 -8 -7 -5 -15 4 -8 3 -17 -2 -19 -4 -3 -6 -24
-5 -48 2 -30 0 -37 -5 -23 -5 11 -7 23 -5 27 3 4 0 9 -5 13 -6 3 -8 -6 -5 -21
3 -16 1 -23 -6 -19 -12 7 -6 51 7 48 6 -1 10 24 9 57 l-1 60 -35 0 c-32 0 -36
-3 -37 -27 -1 -22 0 -24 6 -9 4 11 15 20 24 22 17 2 20 -4 20 -38 0 -10 4 -15
8 -12 5 3 9 -4 9 -15 0 -26 -5 -26 -41 0 l-29 20 -2 -58 -1 -58 -6 55 c-8 72
-26 71 -26 -2 0 -49 -3 -58 -17 -58 -13 0 -18 8 -18 26 0 23 -3 26 -26 21 -18
-3 -24 -1 -20 9 3 7 0 16 -6 20 -6 4 -8 3 -5 -3 4 -6 0 -13 -7 -16 -8 -3 -17
-1 -20 6 -2 7 -5 -17 -7 -53 -1 -53 -3 -59 -8 -30 -4 23 -12 34 -21 32 -11 -2
-10 1 3 11 11 9 17 26 16 48 -1 24 -3 27 -6 12 -2 -13 -9 -23 -15 -23 -5 0 -8
-7 -5 -15 4 -8 2 -17 -3 -20 -6 -4 -10 -16 -10 -27 0 -12 -3 -18 -7 -15 -3 4
-12 2 -20 -4 -7 -6 -13 -8 -13 -4 0 4 -7 2 -15 -5 -12 -10 -13 -15 -3 -28 11
-13 10 -14 -2 -10 -10 3 -15 18 -15 45 0 23 -3 45 -7 49 -10 9 11 36 22 29 12
-8 6 21 -8 38 -13 15 -27 65 -15 53 3 -3 12 -1 19 5 8 7 14 7 19 -1 4 -6 2 -9
-3 -8 -6 2 -10 -1 -11 -7 -1 -5 8 -10 18 -10 11 0 23 -3 27 -7 3 -4 -3 -6 -15
-3 -24 4 -28 -7 -7 -24 12 -10 17 -8 25 7 8 15 7 23 -4 32 -11 9 -12 17 -5 30
7 13 6 20 -3 23 -6 3 4 5 23 5 19 0 29 -2 21 -5z m372 0 c-7 -2 -21 -2 -30 0
-10 3 -4 5 12 5 17 0 24 -2 18 -5z m52 -3 c3 -5 12 -7 20 -3 8 3 15 0 15 -7 0
-6 5 -8 12 -4 7 4 56 9 110 11 94 4 98 3 98 -17 0 -12 -4 -19 -9 -15 -5 3 -12
1 -15 -4 -6 -10 -20 -9 -49 4 -10 4 -21 5 -24 1 -3 -3 -12 -1 -20 5 -10 9 -13
8 -13 -2 0 -11 -2 -11 -10 1 -9 13 -10 13 -10 0 0 -13 -1 -13 -10 0 -8 12 -10
8 -11 -15 -1 -16 -1 -34 0 -38 1 -5 -3 -6 -9 -2 -5 3 -7 17 -4 30 8 32 -3 50
-22 34 -8 -6 -14 -8 -14 -3 0 5 -4 3 -9 -5 -5 -8 -14 -10 -22 -5 -21 13 -59
14 -59 1 0 -8 -3 -8 -12 1 -7 7 -16 8 -23 2 -8 -7 -12 -5 -12 5 0 11 12 15 46
15 33 0 42 3 31 10 -13 8 -13 10 2 10 9 0 19 -4 23 -10z m370 -10 c-3 -5 3
-10 14 -10 12 0 21 -7 21 -15 0 -8 -5 -15 -11 -15 -5 0 -7 5 -3 12 4 7 3 8 -5
4 -6 -4 -9 -12 -6 -17 4 -5 3 -14 -1 -21 -4 -6 -7 -30 -7 -53 0 -28 -4 -42
-13 -42 -9 0 -10 5 -3 18 11 22 12 62 1 55 -5 -3 -8 15 -7 39 1 25 -2 42 -6
39 -5 -3 -7 -9 -4 -14 11 -18 -36 -18 -48 1 -8 10 -17 16 -20 12 -4 -3 -7 -1
-7 5 0 8 20 12 56 12 34 0 53 -4 49 -10z m338 3 c-22 -3 -33 -10 -34 -21 0
-14 -2 -13 -9 3 -8 19 -8 19 -18 -5 -7 -17 -11 -19 -11 -8 -1 9 -5 19 -10 22
-5 4 -7 -2 -4 -12 2 -10 -6 -27 -21 -41 -14 -14 -26 -20 -26 -15 0 5 -5 2 -10
-6 -7 -11 -10 -7 -10 18 0 18 4 31 9 28 5 -4 8 2 7 11 -2 10 -10 19 -19 21
-12 3 -14 -3 -10 -29 4 -29 3 -31 -11 -20 -9 7 -13 18 -9 25 4 7 1 6 -9 -1 -8
-7 -19 -9 -23 -5 -5 4 -5 2 -1 -5 3 -6 2 -14 -4 -18 -5 -3 -10 2 -11 12 0 14
-2 15 -6 3 -4 -8 -13 -21 -22 -28 -14 -10 -14 -11 4 -6 16 5 17 4 5 -5 -9 -6
-18 -7 -24 -1 -13 13 -17 42 -5 34 5 -3 9 0 9 5 0 6 -4 11 -10 11 -5 0 -10 9
-10 19 0 18 9 19 163 19 89 -1 147 -3 130 -5z m120 -11 c-3 -13 1 -19 12 -19
10 0 15 6 12 17 -3 12 4 17 26 18 23 2 28 -1 23 -13 -4 -10 -2 -14 5 -9 7 4
10 -1 7 -12 -2 -11 -9 -19 -16 -19 -7 0 -17 -7 -23 -15 -8 -12 -9 -11 -7 5 2
15 -2 19 -17 17 -11 -2 -23 -9 -27 -15 -6 -9 -8 -8 -8 2 0 8 -6 11 -16 7 -12
-4 -14 -1 -9 13 3 11 2 22 -2 24 -9 6 -11 -6 -14 -83 -1 -32 -6 -49 -13 -47
-14 5 -15 28 -2 46 8 10 8 15 -1 18 -8 3 -13 21 -13 44 l0 39 44 0 c38 0 43
-3 39 -18z m176 -30 c-2 -32 -7 -49 -16 -49 -8 0 -10 4 -3 12 5 7 7 15 3 18
-9 10 -34 -14 -26 -26 3 -5 1 -7 -4 -4 -6 4 -16 1 -22 -7 -14 -16 -28 -16 -56
3 -13 8 -14 11 -3 7 22 -7 30 4 15 22 -7 9 -7 13 -1 9 14 -8 47 26 37 37 -5 4
-1 6 7 4 8 -1 18 -9 21 -17 9 -23 38 -22 32 0 -3 10 -10 16 -16 12 -6 -3 -7
-1 -3 6 4 6 12 9 17 6 5 -4 9 -1 9 4 0 6 2 11 5 11 4 0 5 -22 4 -48z m136 28
c1 -8 6 -14 13 -12 7 1 12 -2 12 -8 0 -5 -4 -10 -9 -10 -5 0 -7 -14 -4 -31 3
-24 2 -29 -9 -23 -10 6 -10 4 1 -9 7 -9 10 -17 7 -17 -4 0 -3 -8 2 -17 5 -10
6 -27 1 -38 -7 -18 -8 -18 -8 -2 -1 12 -5 16 -13 11 -10 -6 -10 -5 0 8 10 12
9 21 -2 43 -15 28 -15 27 -11 -21 4 -63 -4 -109 -18 -95 -7 7 -6 16 4 27 8 10
9 15 2 11 -6 -4 -14 -3 -17 2 -4 5 -2 13 4 16 8 5 7 11 -1 21 -6 7 -13 30 -15
49 -1 19 -6 40 -9 45 -3 6 -1 10 5 10 8 0 8 6 0 20 -9 16 -8 20 5 20 9 0 13
-4 10 -10 -3 -5 -1 -10 5 -10 6 0 8 -5 5 -11 -10 -15 -13 -89 -5 -94 4 -2 6
14 6 36 -1 39 12 82 15 49 1 -8 1 -19 0 -23 -1 -5 3 -6 9 -2 7 4 7 13 -1 26
-6 11 -8 27 -5 35 8 20 -48 19 -64 -1 -7 -8 -9 -15 -4 -15 5 0 8 -30 7 -67 -1
-37 3 -73 9 -80 6 -8 8 -16 4 -20 -3 -3 -6 -1 -6 6 0 8 -5 7 -16 -3 -16 -17
-39 -12 -28 5 3 5 10 7 15 4 5 -4 9 1 9 10 0 9 -4 14 -9 10 -18 -10 -21 13 -4
30 13 14 14 18 3 25 -11 7 -11 11 1 26 11 15 12 16 0 9 -11 -6 -13 -2 -9 19 3
15 1 26 -6 27 -6 0 0 5 14 10 20 8 22 12 10 20 -10 6 2 9 40 7 41 -2 55 -7 55
-18z m39 8 c-5 -7 -3 -8 7 -2 8 4 22 10 32 11 15 3 17 -8 15 -115 -1 -89 -3
-103 -7 -59 -3 31 -10 57 -16 57 -5 0 -10 9 -10 19 0 11 -3 23 -8 27 -4 4 -7
-5 -6 -22 3 -50 -1 -75 -10 -70 -13 8 -20 56 -9 62 5 3 5 11 -1 18 -6 7 -6 17
-1 26 15 24 12 43 -6 36 -14 -5 -15 -4 -4 9 15 17 35 21 24 3z m-463 -17 c12
20 22 3 15 -26 -7 -26 -22 -35 -23 -12 0 6 -3 19 -5 27 -3 8 -3 11 0 6 2 -4 8
-2 13 5z m-536 -41 c1 -26 -1 -28 -15 -15 -9 8 -19 13 -22 10 -2 -3 -5 2 -5
10 0 11 4 12 14 3 11 -8 12 -7 7 6 -4 10 -1 16 7 16 9 0 14 -12 14 -30z m-750
-16 c-2 -20 -6 -38 -9 -41 -2 -2 -3 10 -2 29 4 42 5 48 10 48 2 0 3 -16 1 -36z
m480 27 c3 -5 2 -12 -3 -15 -5 -3 -9 1 -9 9 0 17 3 19 12 6z m606 -8 c0 -4 6
-18 14 -30 9 -14 11 -24 5 -28 -6 -3 -10 1 -10 10 0 9 -3 14 -8 12 -4 -3 -7 8
-7 24 -1 15 1 26 3 24 2 -2 4 -7 3 -12z m-1480 -7 c-5 -6 -7 -19 -6 -29 3 -15
1 -16 -11 -6 -10 8 -11 15 -4 24 5 6 8 14 5 17 -3 2 2 5 10 5 9 0 11 -4 6 -11z
m630 -3 c13 -16 12 -17 -3 -4 -10 7 -18 15 -18 17 0 8 8 3 21 -13z m1001 6 c2
-2 1 -3 -1 -1 -2 1 -12 -5 -22 -14 -16 -15 -17 -14 -12 4 4 17 27 25 35 11z
m-1192 -24 c19 11 18 -13 0 -30 -15 -14 -17 -21 -9 -32 6 -7 9 -13 5 -13 -3 0
-9 0 -13 0 -4 0 -8 23 -9 51 -1 36 2 46 8 35 5 -9 13 -14 18 -11z m557 3 c-3
-8 -6 -5 -6 6 -1 11 2 17 5 13 3 -3 4 -12 1 -19z m1553 -14 c0 -14 -4 -23 -9
-20 -7 5 -8 23 -2 44 4 12 11 -3 11 -24z m-1790 -29 c-7 -8 -10 -23 -7 -34 2
-10 1 -25 -4 -32 -6 -9 -8 10 -8 48 1 54 3 60 16 47 12 -12 12 -18 3 -29z
m894 23 c-5 -7 -9 -17 -9 -22 0 -5 -10 -11 -22 -12 -13 -2 -23 1 -23 7 0 5 4
8 9 4 6 -3 18 5 28 19 18 25 32 28 17 4z m43 -7 c0 -15 -1 -18 -4 -8 -2 9 -8
15 -12 13 -4 -3 -8 1 -8 8 0 25 23 12 24 -13z m-701 -3 c3 -5 -5 -6 -20 -2
-18 4 -26 2 -26 -7 0 -7 -2 -10 -5 -7 -3 3 -3 12 0 20 6 16 40 14 51 -4z m54
-25 c0 -25 -3 -44 -6 -40 -7 7 -13 69 -7 80 9 16 13 5 13 -40z m520 13 c0 -5
-3 -6 -7 -3 -3 4 -12 2 -20 -4 -7 -6 -13 -10 -14 -8 -6 31 -6 38 1 34 5 -3 12
0 16 6 7 11 24 -6 24 -25z m198 2 c1 -23 -1 -29 -7 -19 -7 11 -8 29 -2 49 3
10 7 -3 9 -30z m-1450 -18 c1 -32 -12 -40 -21 -15 -4 8 -2 17 4 21 6 4 6 11
-2 20 -9 12 -9 13 3 9 8 -3 15 -19 16 -35z m524 -2 c-10 -10 -10 -8 -2 37 1 6
4 2 7 -9 3 -10 0 -23 -5 -28z m303 32 c-4 -6 -11 -8 -16 -5 -5 4 -12 -1 -16
-10 -3 -10 0 -20 6 -25 9 -5 8 -9 -4 -13 -9 -4 -13 -3 -10 3 3 6 1 10 -4 10
-15 0 -14 23 1 38 15 15 52 16 43 2z m112 -12 c-3 -8 -6 -5 -6 6 -1 11 2 17 5
13 3 -3 4 -12 1 -19z m688 12 c4 -6 1 -9 -6 -8 -7 2 -13 -2 -14 -9 0 -6 -3
-14 -7 -18 -3 -4 -5 1 -3 12 2 10 4 21 4 26 1 10 19 9 26 -3z m22 -22 c-3 -7
-5 -2 -5 12 0 14 2 19 5 13 2 -7 2 -19 0 -25z m522 -7 c0 -12 -2 -11 -8 4 -7
17 -8 17 -15 -8 -4 -18 -11 -25 -19 -20 -7 4 -6 0 2 -11 8 -9 10 -16 5 -15
-21 4 -26 -2 -14 -16 7 -8 17 -12 23 -8 5 3 7 1 4 -5 -9 -13 -30 -10 -51 7
-15 12 -20 8 -17 -12 1 -5 -4 -5 -10 -2 -13 8 4 30 24 30 7 1 11 7 9 14 -4 17
18 42 29 35 8 -5 14 18 10 40 -1 5 5 4 13 -4 9 -7 16 -20 15 -29z m-1280 22
c14 10 14 10 4 -4 -7 -9 -10 -19 -6 -22 3 -4 4 -7 1 -7 -3 0 -13 10 -24 23
-10 12 -12 16 -4 10 11 -10 17 -10 29 0z m68 -35 c-3 -7 -5 -2 -5 12 0 14 2
19 5 13 2 -7 2 -19 0 -25z m93 22 c0 -5 -2 -10 -4 -10 -3 0 -8 5 -11 10 -3 6
-1 10 4 10 6 0 11 -4 11 -10z m527 -12 c-3 -8 -6 -5 -6 6 -1 11 2 17 5 13 3
-3 4 -12 1 -19z m504 8 c-8 -10 -9 -16 -1 -21 5 -3 10 -11 10 -18 0 -6 -6 -2
-14 9 -13 17 -6 44 11 44 3 0 0 -6 -6 -14z m-1751 -38 c0 -22 -4 -37 -9 -34
-4 3 -7 17 -6 31 2 14 -1 23 -6 19 -5 -3 -9 -15 -10 -27 -1 -20 -2 -20 -8 3
-9 28 1 47 24 47 11 0 15 -11 15 -39z m852 7 c-4 -34 -15 -45 -27 -26 -3 5 -1
12 5 16 5 3 10 15 10 26 0 10 4 19 8 19 4 0 6 -16 4 -35z m-1160 -10 c-6 -34
-12 -32 -12 6 0 16 4 28 9 25 4 -3 6 -17 3 -31z m1371 20 c-1 -5 6 -19 15 -30
12 -14 13 -16 2 -9 -8 6 -22 10 -31 9 -9 -2 -21 7 -27 20 -9 20 -8 22 16 21
15 -1 26 -5 25 -11z m-1318 -10 c6 -1 9 -7 7 -15 -2 -8 -4 -22 -5 -32 -1 -12
-5 -14 -18 -8 -9 5 -20 6 -25 2 -5 -4 -3 0 4 9 6 8 10 25 7 38 -3 15 0 19 8
14 7 -4 17 -8 22 -8z m622 -7 c-3 -8 -6 -5 -6 6 -1 11 2 17 5 13 3 -3 4 -12 1
-19z m178 13 c3 -5 2 -12 -3 -15 -5 -3 -9 1 -9 9 0 17 3 19 12 6z m350 1 c-3
-3 1 -12 8 -21 10 -14 10 -14 -4 -4 -9 7 -18 11 -21 8 -2 -3 -5 1 -5 8 0 8 6
14 14 14 7 0 11 -3 8 -5z m1003 -17 c-3 -3 -9 2 -12 12 -6 14 -5 15 5 6 7 -7
10 -15 7 -18z m-2258 -11 c0 -14 -4 -23 -9 -20 -7 5 -8 23 -2 44 4 12 11 -3
11 -24z m708 1 c-3 -3 -9 2 -12 12 -6 14 -5 15 5 6 7 -7 10 -15 7 -18z m159
-7 c-3 -7 -5 -2 -5 12 0 14 2 19 5 13 2 -7 2 -19 0 -25z m-2285 7 c2 3 2 -10
0 -28 -4 -27 -6 -29 -12 -12 -4 11 -5 24 -2 29 3 5 0 6 -6 2 -6 -4 -9 -14 -6
-24 5 -13 4 -14 -4 -3 -14 19 -3 54 13 41 6 -5 14 -8 17 -5z m1148 11 c0 -11
-19 -15 -25 -6 -3 5 1 10 9 10 9 0 16 -2 16 -4z m707 -18 c-3 -8 -6 -5 -6 6
-1 11 2 17 5 13 3 -3 4 -12 1 -19z m610 3 c0 -11 -5 -18 -9 -15 -4 3 -5 11 -1
19 7 21 12 19 10 -4z m631 -50 c-1 -28 -3 -38 -7 -25 -3 12 -13 20 -21 19 -11
-2 -16 5 -16 21 0 12 4 20 9 17 4 -3 11 5 14 17 9 34 21 4 21 -49z m-1298 36
c0 -13 -6 -24 -13 -24 -11 0 -11 6 -3 24 14 29 16 29 16 0z m23 3 c-3 -11 -7
-20 -9 -20 -2 0 -4 9 -4 20 0 11 4 20 9 20 5 0 7 -9 4 -20z m123 8 c3 -4 -1
-5 -10 -4 -8 1 -18 5 -22 8 -3 4 1 5 10 4 8 -1 18 -5 22 -8z m-1832 -52 c-3
-14 -10 -26 -16 -26 -5 0 -7 -4 -3 -9 3 -5 0 -13 -6 -16 -5 -4 -8 -13 -6 -19
3 -7 1 -19 -4 -27 -6 -10 -9 -8 -10 11 -1 17 -3 19 -6 8 -2 -10 -9 -18 -14
-18 -6 0 -7 5 -3 11 3 6 0 15 -7 20 -10 6 -8 9 9 9 12 0 22 5 22 11 0 7 -9 9
-21 6 -16 -4 -18 -3 -9 8 7 8 9 20 5 27 -4 7 1 4 10 -7 17 -20 17 -19 13 7 -4
21 -1 26 13 23 10 -2 18 -1 18 3 -3 19 2 25 12 15 5 -5 7 -22 3 -37z m1153 12
c-3 -7 -5 -2 -5 12 0 14 2 19 5 13 2 -7 2 -19 0 -25z m200 -15 c-3 -10 -5 -4
-5 12 0 17 2 24 5 18 2 -7 2 -21 0 -30z m1220 0 c-3 -10 -5 -4 -5 12 0 17 2
24 5 18 2 -7 2 -21 0 -30z m83 27 c0 -5 -2 -10 -4 -10 -3 0 -8 5 -11 10 -3 6
-1 10 4 10 6 0 11 -4 11 -10z m53 -15 c-3 -9 -8 -14 -10 -11 -3 3 -2 9 2 15 9
16 15 13 8 -4z m446 1 c9 -11 9 -16 -1 -22 -7 -4 -10 -4 -6 1 4 4 3 14 -3 22
-6 7 -9 13 -6 13 2 0 10 -6 16 -14z m-1852 -11 c0 -8 -4 -12 -9 -9 -5 3 -6 10
-3 15 9 13 12 11 12 -6z m1910 -32 c-3 -10 -5 -2 -5 17 0 19 2 27 5 18 2 -10
2 -26 0 -35z m-3194 22 c-3 -9 -8 -14 -10 -11 -3 3 -2 9 2 15 9 16 15 13 8 -4z
m2834 -22 c-3 -10 -5 -4 -5 12 0 17 2 24 5 18 2 -7 2 -21 0 -30z m-2614 6
c-11 -4 -23 -14 -26 -23 -9 -23 -27 -20 -27 5 0 15 5 19 15 15 9 -3 15 0 15 8
0 10 7 12 22 8 21 -5 21 -5 1 -13z m148 12 c7 11 9 10 9 -3 0 -9 -4 -20 -10
-23 -5 -3 -10 -4 -10 -1 0 2 -2 10 -3 18 -2 7 -2 9 1 4 2 -4 8 -2 13 5z m1176
-13 c-3 -8 -6 -5 -6 6 -1 11 2 17 5 13 3 -3 4 -12 1 -19z m-1760 -13 c0 -8 -4
-12 -9 -9 -5 3 -6 10 -3 15 9 13 12 11 12 -6z m458 -5 c-4 -6 -10 -8 -15 -5
-4 3 -10 -4 -13 -15 -3 -11 -1 -22 4 -25 14 -9 -13 -44 -29 -38 -11 5 -11 7 0
14 13 8 15 14 17 57 1 15 7 22 22 22 11 0 17 -5 14 -10z m-174 -37 c-4 -28 -6
-32 -9 -15 -3 22 3 52 11 52 1 0 1 -17 -2 -37z m-32 -80 c-1 -47 -4 -58 -8
-37 -4 22 -11 30 -24 28 -9 -1 -15 2 -11 7 3 5 10 7 15 4 11 -7 25 23 15 33
-4 3 -11 0 -16 -8 -8 -12 -10 -12 -10 -1 0 11 26 39 38 41 1 0 1 -30 1 -67z
m278 55 c6 -9 5 -22 -3 -38 -10 -18 -14 -20 -14 -8 0 9 5 20 10 23 6 4 8 11 5
16 -4 5 -17 2 -31 -7 -27 -18 -33 -8 -6 12 22 17 27 17 39 2z m-367 -22 c0
-10 -7 -12 -22 -8 -21 5 -21 6 -2 13 10 4 20 8 22 8 1 1 2 -5 2 -13z m34 -23
c-7 -2 -10 -12 -7 -22 3 -11 -1 -18 -11 -18 -12 0 -13 4 -5 14 6 7 8 13 4 13
-4 0 -2 6 4 13 6 8 9 16 7 19 -1 3 2 1 8 -4 8 -8 8 -12 0 -15z m155 -23 c0
-10 -3 -8 -9 5 -12 27 -12 43 0 25 5 -8 9 -22 9 -30z m-434 21 c3 -5 1 -12 -5
-16 -5 -3 -10 1 -10 9 0 18 6 21 15 7z m562 -13 c-3 -8 -6 -5 -6 6 -1 11 2 17
5 13 3 -3 4 -12 1 -19z m-390 -10 c-3 -8 -6 -5 -6 6 -1 11 2 17 5 13 3 -3 4
-12 1 -19z m430 -35 c-3 -10 -5 -4 -5 12 0 17 2 24 5 18 2 -7 2 -21 0 -30z
m73 17 c-14 -10 -27 -16 -30 -13 -6 6 30 33 44 33 6 0 0 -9 -14 -20z m-100 -4
c0 -3 -4 -8 -10 -11 -5 -3 -10 -1 -10 4 0 6 5 11 10 11 6 0 10 -2 10 -4z
m-583 -53 c-3 -10 -5 -4 -5 12 0 17 2 24 5 18 2 -7 2 -21 0 -30z m40 -20 c-3
-10 -5 -2 -5 17 0 19 2 27 5 18 2 -10 2 -26 0 -35z m310 -35 c-3 -8 -6 -5 -6
6 -1 11 2 17 5 13 3 -3 4 -12 1 -19z m-347 -80 c0 -4 -4 -8 -9 -8 -6 0 -12 4
-15 8 -3 5 1 9 9 9 8 0 15 -4 15 -9z m343 -85 c-28 -11 -11 -23 30 -22 23 1
32 4 20 6 -13 2 -23 9 -23 14 0 6 10 7 23 3 29 -9 33 -13 21 -23 -18 -16 -69
-20 -88 -6 -20 15 -14 35 12 34 11 0 12 -3 5 -6z m615 -35 c3 -21 -1 -28 -15
-29 -17 -1 -17 -2 0 -6 18 -5 20 -14 11 -60 -6 -30 -8 -31 -64 -23 -8 2 1 6
20 10 l35 7 -32 2 c-24 1 -33 6 -33 19 0 13 2 14 9 3 6 -9 11 -10 15 -2 4 6
12 11 17 11 6 0 7 -4 4 -10 -3 -5 -1 -10 4 -10 6 0 11 9 11 19 0 14 -10 22
-32 27 l-33 7 35 12 c19 6 34 15 33 18 -2 4 -3 11 -3 16 0 5 -8 12 -17 15 -11
3 -7 4 7 3 19 -2 26 -8 28 -29z m-39 6 c6 4 11 2 11 -3 0 -6 -9 -11 -20 -11
-12 0 -20 7 -20 18 0 13 2 14 9 3 5 -7 14 -10 20 -7z m-594 -14 c3 -5 1 -10
-4 -10 -6 0 -11 5 -11 10 0 6 2 10 4 10 3 0 8 -4 11 -10z m241 -5 c4 -8 16
-15 28 -15 19 0 21 -5 21 -70 0 -60 -3 -70 -17 -70 -11 0 -15 5 -12 15 4 8 1
15 -5 15 -6 0 -11 -5 -11 -11 0 -5 -4 -8 -9 -4 -5 3 -12 1 -16 -5 -3 -5 -17
-10 -29 -10 -21 0 -24 5 -24 45 l-1 45 57 2 57 1 -60 6 c-38 4 -55 9 -47 15 7
4 33 5 58 1 28 -4 44 -2 44 4 0 6 -21 11 -50 11 -36 0 -50 4 -50 14 0 26 57
36 66 11z m593 -85 l-5 -95 -2 82 c-2 66 5 125 12 111 1 -2 -1 -46 -5 -98z
m-42 13 c-2 -16 -4 -3 -4 27 0 30 2 43 4 28 2 -16 2 -40 0 -55z m2755 -3 c3
-16 1 -30 -4 -30 -4 0 -8 9 -8 19 0 11 -3 27 -7 37 -4 11 -3 15 4 11 6 -4 13
-20 15 -37z m-144 13 c-10 -2 -18 -11 -18 -20 0 -11 8 -14 35 -11 20 2 35 0
35 -7 0 -5 -18 -10 -40 -10 -34 0 -40 3 -40 21 0 25 8 34 29 33 13 -1 13 -2
-1 -6z m-3264 -60 c-7 -39 -14 -42 -14 -5 0 18 4 32 9 32 5 0 7 -12 5 -27z
m163 5 c-3 -8 -6 -5 -6 6 -1 11 2 17 5 13 3 -3 4 -12 1 -19z m323 -23 c0 -7
-8 -19 -17 -24 -17 -10 -17 -10 0 -11 9 0 17 -4 17 -9 0 -4 -11 -6 -25 -3 -17
3 -30 -1 -38 -13 -12 -15 -13 -14 -12 7 0 34 12 46 40 40 14 -2 25 0 25 6 0 6
-17 13 -37 15 l-38 4 43 1 c31 2 42 -2 42 -13z m2817 -9 c-9 -7 -17 -21 -17
-30 0 -9 -8 -16 -20 -16 -11 0 -20 5 -20 11 0 6 7 9 15 5 9 -3 15 0 15 9 0 19
-17 28 -23 13 -4 -9 -6 -10 -6 -1 -1 18 20 27 29 13 6 -9 11 -8 21 3 8 8 16
13 19 10 3 -2 -3 -10 -13 -17z m-3167 -46 c0 -13 -11 -16 -55 -18 -30 0 -55 3
-55 8 0 6 23 10 52 10 38 0 49 3 41 11 -6 6 -30 10 -52 7 -43 -4 -44 8 -1 14
34 5 70 -11 70 -32z m152 33 c-6 -2 -10 -8 -8 -11 2 -4 0 -27 -4 -52 l-7 -45
-2 58 c-1 48 2 57 17 56 10 0 12 -3 4 -6z m-537 -33 c-3 -5 -14 -10 -24 -10
-10 0 -21 -9 -24 -20 -5 -20 -37 -29 -37 -10 0 5 7 7 15 4 9 -4 15 0 15 10 0
9 -7 16 -15 16 -8 0 -15 5 -15 10 0 6 21 10 46 10 27 0 43 -4 39 -10z m735
-30 c0 -21 -15 -27 -25 -10 -3 6 -1 10 5 10 6 0 8 5 5 10 -3 6 -1 10 4 10 6 0
11 -9 11 -20z m2950 -6 c0 -8 -7 -14 -15 -14 -8 0 -15 9 -15 20 0 13 5 18 15
14 8 -4 15 -12 15 -20z m-2990 6 c0 -5 -5 -10 -11 -10 -5 0 -7 5 -4 10 3 6 8
10 11 10 2 0 4 -4 4 -10z m-334 -13 c4 -4 1 -7 -7 -7 -8 0 -27 -7 -43 -15 -16
-9 -31 -13 -34 -11 -2 3 8 11 24 18 l28 13 -34 7 c-30 5 -28 6 12 4 26 -1 51
-5 54 -9z m-198 -14 c-15 -2 -42 -2 -60 0 -18 2 -6 4 27 4 33 0 48 -2 33 -4z
m532 -12 c0 -5 -9 -7 -20 -4 -11 3 -20 7 -20 9 0 2 9 4 20 4 11 0 20 -4 20 -9z
m-546 -15 c-10 -8 -21 -12 -24 -10 -5 6 21 24 34 24 6 0 1 -6 -10 -14z m-37
-42 c-3 -3 -12 -4 -19 -1 -8 3 -5 6 6 6 11 1 17 -2 13 -5z"/>
<path d="M2574 1591 c16 -18 23 -76 8 -67 -5 3 -9 -1 -9 -8 0 -7 6 -13 12 -13
7 0 13 20 14 52 2 45 0 51 -20 52 -20 2 -20 1 -5 -16z"/>
<path d="M2683 1433 c4 -3 1 -13 -6 -22 -10 -14 -10 -14 4 -4 9 7 19 10 23 6
4 -4 4 0 0 10 -3 9 -11 17 -17 17 -6 0 -7 -3 -4 -7z"/>
<path d="M3270 1574 c0 -8 5 -12 10 -9 6 4 8 11 5 16 -9 14 -15 11 -15 -7z"/>
<path d="M3026 1554 c-8 -22 -8 -44 2 -44 4 0 8 14 9 30 2 33 -2 38 -11 14z"/>
<path d="M2896 1547 c3 -10 9 -15 12 -12 3 3 0 11 -7 18 -10 9 -11 8 -5 -6z"/>
<path d="M2924 1503 c2 -10 0 -22 -4 -28 -5 -5 -10 -25 -13 -43 -4 -26 -3 -31
7 -23 7 6 15 9 18 6 3 -3 11 1 17 9 10 12 8 16 -8 21 -12 3 -21 11 -21 17 0 7
4 7 13 -1 19 -15 30 -1 14 17 -8 11 -8 14 0 9 6 -4 15 -2 19 5 4 7 3 10 -1 5
-5 -4 -16 0 -26 9 -16 14 -17 14 -15 -3z"/>
<path d="M3626 1591 c-4 -5 1 -8 9 -7 21 3 31 16 12 16 -9 0 -18 -4 -21 -9z"/>
<path d="M3855 1590 c3 -5 8 -10 11 -10 2 0 4 5 4 10 0 6 -5 10 -11 10 -5 0
-7 -4 -4 -10z"/>
<path d="M3908 1593 c6 -2 18 -2 25 0 6 3 1 5 -13 5 -14 0 -19 -2 -12 -5z"/>
<path d="M4283 1585 c0 -8 4 -12 9 -9 4 3 8 9 8 15 0 5 -4 9 -8 9 -5 0 -9 -7
-9 -15z"/>
<path d="M4329 1544 c-6 -8 -8 -14 -4 -14 4 0 2 -6 -4 -13 -8 -10 -7 -14 4
-14 7 0 13 5 12 11 -1 5 3 10 10 11 12 0 42 24 33 26 -3 0 -13 2 -22 4 -9 2
-22 -3 -29 -11z"/>
<path d="M4600 1565 c0 -8 4 -15 10 -15 5 0 7 7 4 15 -4 8 -8 15 -10 15 -2 0
-4 -7 -4 -15z"/>
<path d="M2873 1495 c0 -8 4 -12 9 -9 5 3 6 10 3 15 -9 13 -12 11 -12 -6z"/>
<path d="M4130 1445 c0 -2 6 -8 13 -14 10 -8 14 -7 14 2 0 8 -6 14 -14 14 -7
0 -13 -1 -13 -2z"/>
<path d="M2826 1418 c3 -5 10 -6 15 -3 13 9 11 12 -6 12 -8 0 -12 -4 -9 -9z"/>
<path d="M4385 1381 c-6 -11 9 -23 19 -14 9 9 7 23 -3 23 -6 0 -12 -4 -16 -9z"/>
<path d="M1669 829 c-10 -6 -7 -9 14 -9 29 0 35 5 14 13 -8 3 -20 1 -28 -4z"/>
<path d="M1650 750 c0 -5 9 -10 20 -10 11 0 20 5 20 10 0 6 -9 10 -20 10 -11
0 -20 -4 -20 -10z"/>
<path d="M1700 750 c0 -5 12 -10 26 -10 14 0 23 4 19 10 -3 6 -15 10 -26 10
-10 0 -19 -4 -19 -10z"/>
<path d="M1666 709 c-25 -24 -16 -24 31 1 33 18 35 20 13 19 -14 0 -34 -9 -44
-20z"/>
<path d="M2038 663 c7 -3 16 -2 19 1 4 3 -2 6 -13 5 -11 0 -14 -3 -6 -6z"/>
<path d="M1210 2060 c0 -5 7 -10 16 -10 8 0 12 5 9 10 -3 6 -10 10 -16 10 -5
0 -9 -4 -9 -10z"/>
<path d="M1256 2045 c4 -10 0 -15 -15 -15 -12 0 -21 -4 -21 -8 0 -4 18 -8 40
-7 36 0 40 2 39 25 -1 17 -3 19 -6 8 -5 -22 -23 -24 -23 -3 0 8 -4 15 -10 15
-5 0 -7 -7 -4 -15z"/>
<path d="M4790 2015 c0 -8 2 -15 4 -15 2 0 6 7 10 15 3 8 1 15 -4 15 -6 0 -10
-7 -10 -15z"/>
<path d="M4271 1994 c0 -11 3 -14 6 -6 3 7 2 16 -1 19 -3 4 -6 -2 -5 -13z"/>
<path d="M1196 1963 c-3 -8 -1 -23 5 -34 9 -19 12 -19 33 -6 16 11 27 12 40 5
23 -13 39 2 29 28 -10 24 -98 30 -107 7z m44 -18 c0 -8 -4 -15 -10 -15 -5 0
-10 7 -10 15 0 8 5 15 10 15 6 0 10 -7 10 -15z m60 1 c0 -3 -4 -8 -10 -11 -5
-3 -10 -1 -10 4 0 6 5 11 10 11 6 0 10 -2 10 -4z"/>
<path d="M1801 1964 c0 -11 3 -14 6 -6 3 7 2 16 -1 19 -3 4 -6 -2 -5 -13z"/>
<path d="M1165 1960 c-3 -5 -2 -18 4 -27 7 -14 9 -12 8 10 -2 30 -3 31 -12 17z"/>
<path d="M1516 1957 c3 -10 9 -15 12 -12 3 3 0 11 -7 18 -10 9 -11 8 -5 -6z"/>
<path d="M3160 1939 c0 -5 5 -7 10 -4 6 3 10 8 10 11 0 2 -4 4 -10 4 -5 0 -10
-5 -10 -11z"/>
<path d="M2526 1931 c-4 -5 -2 -20 3 -33 8 -21 9 -20 9 10 -1 34 -3 38 -12 23z"/>
<path d="M1867 1887 c2 -60 4 -65 12 -37 5 14 5 29 0 34 -4 5 -5 14 -3 21 3 7
2 15 -3 18 -5 3 -7 -13 -6 -36z"/>
<path d="M1896 1917 c3 -10 9 -15 12 -12 3 3 0 11 -7 18 -10 9 -11 8 -5 -6z"/>
<path d="M1167 1893 c4 -9 0 -11 -11 -7 -9 3 -16 2 -16 -4 0 -15 31 -8 41 10
5 10 4 15 -5 15 -8 0 -12 -6 -9 -14z"/>
<path d="M2162 1890 c-18 -29 -15 -38 4 -12 9 13 14 25 12 27 -2 2 -9 -5 -16
-15z"/>
<path d="M2745 1900 c-3 -5 -1 -10 4 -10 6 0 11 5 11 10 0 6 -2 10 -4 10 -3 0
-8 -4 -11 -10z"/>
<path d="M1375 1889 c-4 -6 -5 -12 -2 -15 2 -3 7 2 10 11 7 17 1 20 -8 4z"/>
<path d="M1552 1849 c-8 -12 -9 -18 -4 -15 6 3 13 0 15 -6 3 -7 6 -1 6 15 1
33 0 33 -17 6z"/>
<path d="M1309 1848 c-6 -12 -5 -48 1 -48 4 0 7 11 6 25 -1 22 -3 30 -7 23z"/>
<path d="M1895 1580 c-3 -5 -1 -10 4 -10 6 0 11 5 11 10 0 6 -2 10 -4 10 -3 0
-8 -4 -11 -10z"/>
<path d="M4725 1570 c3 -5 8 -10 11 -10 2 0 4 5 4 10 0 6 -5 10 -11 10 -5 0
-7 -4 -4 -10z"/>
<path d="M1334 1525 c0 -14 4 -25 8 -25 4 0 7 9 5 20 -5 29 -13 33 -13 5z"/>
<path d="M2184 1535 c-3 -8 -4 -20 -2 -27 3 -7 7 -1 10 15 6 29 1 36 -8 12z"/>
<path d="M4841 1534 c0 -11 3 -14 6 -6 3 7 2 16 -1 19 -3 4 -6 -2 -5 -13z"/>
<path d="M2389 1538 c-5 -18 -6 -38 -1 -34 7 8 12 36 6 36 -2 0 -4 -1 -5 -2z"/>
<path d="M4800 1531 c-8 -6 -19 -7 -25 -4 -5 4 -1 -3 9 -15 11 -12 22 -19 25
-16 3 4 0 9 -7 11 -10 4 -8 9 5 19 20 15 16 19 -7 5z"/>
<path d="M1171 1514 c0 -11 3 -14 6 -6 3 7 2 16 -1 19 -3 4 -6 -2 -5 -13z"/>
<path d="M2153 1523 c-17 -6 -17 -20 0 -20 8 0 14 6 14 14 0 7 -1 13 -1 12 -1
0 -7 -3 -13 -6z"/>
<path d="M2207 1523 c-4 -3 -7 -14 -7 -23 0 -15 27 -20 59 -11 2 1 -2 8 -9 16
-14 16 -34 10 -24 -7 5 -7 2 -8 -5 -4 -7 5 -10 14 -7 22 6 15 3 18 -7 7z"/>
<path d="M4723 1505 c0 -8 4 -12 9 -9 5 3 6 10 3 15 -9 13 -12 11 -12 -6z"/>
<path d="M1953 1492 c0 -12 3 -19 6 -17 2 3 12 -2 21 -10 14 -13 17 -13 17 0
0 8 -4 12 -8 9 -4 -2 -14 5 -23 17 l-15 22 2 -21z"/>
<path d="M2354 1493 c2 -10 6 -17 10 -16 15 3 16 11 2 22 -12 10 -14 9 -12 -6z"/>
<path d="M1127 1483 c-4 -3 -7 -36 -7 -71 0 -82 7 -77 15 11 6 66 5 74 -8 60z"/>
<path d="M1465 1479 c-4 -6 -5 -12 -2 -15 2 -3 7 2 10 11 7 17 1 20 -8 4z"/>
<path d="M1890 1486 c0 -2 8 -10 18 -17 15 -13 16 -12 3 4 -13 16 -21 21 -21
13z"/>
<path d="M2019 1488 c0 -2 -1 -22 -2 -46 -2 -31 3 -48 16 -60 15 -13 18 -14
15 -2 -2 9 3 14 12 12 8 -2 11 0 7 5 -5 4 -14 8 -20 8 -17 0 -16 37 2 60 15
18 15 19 -1 6 -16 -12 -22 -9 -19 12 1 6 -8 11 -10 5z"/>
<path d="M2283 1475 c0 -8 4 -12 9 -9 5 3 6 10 3 15 -9 13 -12 11 -12 -6z"/>
<path d="M2141 1464 c0 -11 3 -14 6 -6 3 7 2 16 -1 19 -3 4 -6 -2 -5 -13z"/>
<path d="M2230 1461 c0 -6 4 -12 8 -15 5 -3 9 1 9 9 0 8 -4 15 -9 15 -4 0 -8
-4 -8 -9z"/>
<path d="M2055 1441 c-3 -5 -2 -12 3 -15 5 -3 9 1 9 9 0 17 -3 19 -12 6z"/>
<path d="M2352 1420 c0 -19 2 -27 5 -17 2 9 2 25 0 35 -3 9 -5 1 -5 -18z"/>
<path d="M2390 1445 c0 -2 6 -8 13 -14 10 -8 14 -7 14 2 0 8 -6 14 -14 14 -7
0 -13 -1 -13 -2z"/>
<path d="M1793 1434 c4 -4 2 -13 -4 -21 -6 -7 -8 -13 -4 -13 4 0 2 -7 -5 -16
-11 -12 -11 -15 1 -12 8 2 17 10 20 18 3 8 11 15 18 15 20 0 13 19 -10 27 -13
5 -20 6 -16 2z"/>
<path d="M1986 1413 c2 -6 -2 -14 -9 -17 -9 -3 -8 -5 1 -5 7 -1 11 -5 8 -9 -3
-5 1 -9 7 -9 7 0 13 11 13 23 0 12 -3 21 -7 18 -4 -2 -9 -1 -12 3 -2 5 -2 3
-1 -4z"/>
<path d="M2393 1407 c1 -7 -4 -11 -11 -9 -8 1 -11 -2 -7 -8 5 -8 11 -8 19 -1
7 6 16 8 19 4 4 -3 7 -2 7 4 0 6 -7 13 -15 17 -8 3 -14 0 -12 -7z"/>
<path d="M1466 1395 c-3 -8 -1 -15 4 -15 6 0 10 7 10 15 0 8 -2 15 -4 15 -2 0
-6 -7 -10 -15z"/>
<path d="M2088 1383 c6 -2 18 -2 25 0 6 3 1 5 -13 5 -14 0 -19 -2 -12 -5z"/>
<path d="M2164 1375 c3 -23 12 -26 13 -5 1 11 -2 20 -7 20 -4 0 -7 -7 -6 -15z"/>
<path d="M1060 1339 c0 -5 5 -7 10 -4 6 3 10 8 10 11 0 2 -4 4 -10 4 -5 0 -10
-5 -10 -11z"/>
<path d="M1122 1310 c0 -19 2 -27 5 -17 2 9 2 25 0 35 -3 9 -5 1 -5 -18z"/>
<path d="M1946 1323 c-6 -14 -5 -15 5 -6 7 7 10 15 7 18 -3 3 -9 -2 -12 -12z"/>
<path d="M1067 1024 c-4 -4 -7 -17 -7 -28 1 -19 1 -20 11 -3 11 19 8 43 -4 31z"/>
<path d="M1102 850 c0 -14 2 -19 5 -12 2 6 2 18 0 25 -3 6 -5 1 -5 -13z"/>
<path d="M1498 793 c12 -2 32 -2 45 0 12 2 2 4 -23 4 -25 0 -35 -2 -22 -4z"/>
<path d="M1483 773 c15 -2 39 -2 55 0 15 2 2 4 -28 4 -30 0 -43 -2 -27 -4z"/>
<path d="M1248 763 c6 -2 18 -2 25 0 6 3 1 5 -13 5 -14 0 -19 -2 -12 -5z"/>
<path d="M1298 763 c7 -3 16 -2 19 1 4 3 -2 6 -13 5 -11 0 -14 -3 -6 -6z"/>
<path d="M1343 763 c9 -2 23 -2 30 0 6 3 -1 5 -18 5 -16 0 -22 -2 -12 -5z"/>
<path d="M1528 733 c7 -3 16 -2 19 1 4 3 -2 6 -13 5 -11 0 -14 -3 -6 -6z"/>
<path d="M1320 710 c0 -5 5 -10 11 -10 5 0 7 -4 4 -10 -3 -5 0 -10 8 -10 10 0
13 7 10 20 -5 20 -33 29 -33 10z"/>
<path d="M1518 713 c7 -3 16 -2 19 1 4 3 -2 6 -13 5 -11 0 -14 -3 -6 -6z"/>
<path d="M1171 694 c0 -11 3 -14 6 -6 3 7 2 16 -1 19 -3 4 -6 -2 -5 -13z"/>
<path d="M1468 693 c6 -2 18 -2 25 0 6 3 1 5 -13 5 -14 0 -19 -2 -12 -5z"/>
<path d="M1528 693 c6 -2 18 -2 25 0 6 3 1 5 -13 5 -14 0 -19 -2 -12 -5z"/>
</g>
</svg>
